<svg width="800" height="600" xmlns="http://www.w3.org/2000/svg">
 <g>
  <title>SkyCloud</title>
  <!-- Created with Method Draw - http://github.com/duopixel/Method-Draw/ -->
  <g id="svg_57">
   <g transform="matrix(3.915, 0, 0, 3.265, -1183.45, -632.779)" id="svg_56">
    <title fill="#75b9f9">icon</title>
    <g id="svg_29">
     <g id="svg_45" transform="matrix(0.343356, 0, 0, 0.343356, 0, 0)">
      <g id="svg_46">
       <path d="m1271.91934,882.06089c2.131,0.113 4.275,0.172 6.436,0.172c67.018,0 121.348,-54.331 121.348,-121.348s-54.33,-121.347 -121.348,-121.347c-65.998,0 -119.652,52.699 -121.271,118.309c24.874,8.538 47.735,22.562 67.015,41.497c23.488,23.071 39.816,51.575 47.82,82.717z" id="svg_54" fill="#75b9f9"/>
       <polygon points="1312.44234085083,623.7719116210938 1278.3553047180176,570.4179077148438 1244.263385772705,623.7719116210938 " id="svg_53" fill="#75b9f9"/>
       <polygon points="1415.4683418273926,794.9758911132812 1468.8213691711426,760.8878784179688 1415.4683418273926,726.7998657226562 " id="svg_52" fill="#75b9f9"/>
       <path d="m1141.23934,726.79989l-33.789,21.588c11.497,0.536 22.797,2.167 33.789,4.826l0,-26.414z" id="svg_51" fill="#75b9f9"/>
       <polygon points="1351.204303741455,639.827880859375 1399.411334991455,688.035888671875 1413.0342597961426,626.2048950195312 " id="svg_50" fill="#75b9f9"/>
       <polygon points="1399.411334991455,833.7368774414062 1351.204303741455,881.9479370117188 1413.0342597961426,895.56689453125 " id="svg_49" fill="#75b9f9"/>
       <polygon points="1157.29536819458,688.035888671875 1205.50337600708,639.827880859375 1143.67232131958,626.2048950195312 " id="svg_48" fill="#75b9f9"/>
       <path d="m1322.88034,901.48489c-4.504,0 -8.928,0.326 -13.262,0.938c-17.891,2.521 -34.17,10.059 -47.371,21.146c-0.172,-8.707 -1.047,-17.242 -2.531,-25.564c-1.09,-6.117 -2.539,-12.104 -4.289,-17.963c-14.477,-48.495 -50.836,-87.513 -97.648,-105.601c-5.382,-2.081 -10.899,-3.892 -16.539,-5.4c-13.482,-3.605 -27.641,-5.561 -42.265,-5.561c-2.268,0 -4.517,0.08 -6.763,0.172c-87.079,3.549 -156.592,75.233 -156.592,163.181c0,16.686 2.515,32.781 7.163,47.943c-31.282,0.695 -56.448,26.221 -56.448,57.676c0,31.885 25.851,57.734 57.736,57.734l154.904,0l7.041,0l216.864,0c52.109,0 94.35,-42.242 94.35,-94.348s-42.241,-94.353 -94.35,-94.353z" id="svg_47" fill="#75b9f9"/>
      </g>
     </g>
     <g id="svg_44" transform="matrix(0.343356, 0, 0, 0.343356, 0, 0)"/>
     <g id="svg_43" transform="matrix(0.343356, 0, 0, 0.343356, 0, 0)"/>
     <g id="svg_42" transform="matrix(0.343356, 0, 0, 0.343356, 0, 0)"/>
     <g id="svg_41" transform="matrix(0.343356, 0, 0, 0.343356, 0, 0)"/>
     <g id="svg_40" transform="matrix(0.343356, 0, 0, 0.343356, 0, 0)"/>
     <g id="svg_39" transform="matrix(0.343356, 0, 0, 0.343356, 0, 0)"/>
     <g id="svg_38" transform="matrix(0.343356, 0, 0, 0.343356, 0, 0)"/>
     <g id="svg_37" transform="matrix(0.343356, 0, 0, 0.343356, 0, 0)"/>
     <g id="svg_36" transform="matrix(0.343356, 0, 0, 0.343356, 0, 0)"/>
     <g id="svg_35" transform="matrix(0.343356, 0, 0, 0.343356, 0, 0)"/>
     <g id="svg_34" transform="matrix(0.343356, 0, 0, 0.343356, 0, 0)"/>
     <g id="svg_33" transform="matrix(0.343356, 0, 0, 0.343356, 0, 0)"/>
     <g id="svg_32" transform="matrix(0.343356, 0, 0, 0.343356, 0, 0)"/>
     <g id="svg_31" transform="matrix(0.343356, 0, 0, 0.343356, 0, 0)"/>
     <g id="svg_30" transform="matrix(0.343356, 0, 0, 0.343356, 0, 0)"/>
    </g>
   </g>
  </g>
 </g>
</svg>