<svg width="1000" height="1000" xmlns="http://www.w3.org/2000/svg">
 <metadata>Svg Vector Icons : http://www.onlinewebfonts.com/icon</metadata>

 <g>
  <title>background</title>
  <rect fill="none" id="canvas_background" height="402" width="582" y="-1" x="-1"/>
 </g>
 <g>
  <title>Layer 1</title>
  <g id="svg_1">
   <g id="svg_2">
    <g id="svg_3">
     <path fill="#D1FFB4" id="svg_4" d="m665.200012,909.700012l177.799988,0c-92.799988,-238.200012 147,-663.099976 147,-663.099976c-432.700012,279.799988 -324.799988,663.099976 -324.799988,663.099976z"/>
     <path fill="#D1FFB4" id="svg_5" d="m990,142.300003c-356.100037,128.300003 -437.299988,309.999985 -437.299988,309.999985s82.299988,171.400024 59.5,244.100037c94.799988,-383.500031 377.799988,-554.100021 377.799988,-554.100021z"/>
     <path fill="#D1FFB4" id="svg_6" d="m10,223.199997c0,0 239.800003,424.899979 147,663.099991l177.899994,0c-0.100006,0 107.800018,-383.199982 -324.899994,-663.099991z"/>
     <path fill="#D1FFB4" id="svg_7" d="m178.399994,90.300003c0,0 292.700012,518.59996 179.399994,809.400009l217.099976,0c0.000061,0 131.600037,-467.800018 -396.499969,-809.400009z"/>
    </g>
   </g>
   <g id="svg_8"/>
   <g id="svg_9"/>
   <g id="svg_10"/>
   <g id="svg_11"/>
   <g id="svg_12"/>
   <g id="svg_13"/>
   <g id="svg_14"/>
   <g id="svg_15"/>
   <g id="svg_16"/>
   <g id="svg_17"/>
   <g id="svg_18"/>
   <g id="svg_19"/>
   <g id="svg_20"/>
   <g id="svg_21"/>
   <g id="svg_22"/>
  </g>
 </g>
</svg>