<svg width="600" height="600" xmlns="http://www.w3.org/2000/svg">
 <g>
  <title>Layer 1</title>
  <g id="svg_6">
   <path fill="#CFCA6D" id="svg_4" d="m291.26665,417.40003l19.46667,0l0,19.4l-19.46667,0l0,-19.4zm0,0"/>
   <path fill="#CFCA6D" id="svg_5" d="m583.26671,77.89996l-38.93334,0l0,-29.10001c0,-5.35679 -4.35814,-9.7 -9.73334,-9.7l-38.93334,0c-5.3752,0 -9.73334,4.34321 -9.73334,9.7l0,29.10001c-5.3752,0 -9.73334,4.34321 -9.73334,9.7l0,29.10001l-107.06669,0l0,-29.10001l19.46667,0c5.3752,0 9.73334,-4.34321 9.73334,-9.7l0,-58.20001c0,-5.35679 -4.35814,-9.7 -9.73334,-9.7l-103.03648,0c-23.72976,-0.00474 -42.96831,19.16792 -42.96355,42.81641l0,3.62803c-6.17838,5.43257 -9.72383,13.24277 -9.73334,21.45557l0,13.40381l-24.85137,-12.38551c-0.11406,-0.04736 -0.24238,-0.0663 -0.35645,-0.1184c-0.11882,-0.04736 -0.42773,-0.14209 -0.65586,-0.23208c-0.93626,-0.34574 -1.92006,-0.54468 -2.9181,-0.59204c-0.16634,-0.00947 -0.28041,-0.07578 -0.41823,-0.07578l-136.2667,0l0,-9.7c0,-5.35679 -4.35814,-9.7 -9.73334,-9.7l-38.93334,0c-5.3752,0 -9.73334,4.34321 -9.73334,9.7l0,155.20003c0,5.35679 4.35814,9.7 9.73334,9.7l38.93334,0c5.3752,0 9.73334,-4.34321 9.73334,-9.7l0,-9.7l136.2667,0c1.41627,-0.01894 2.81354,-0.35049 4.08725,-0.97095c0.08079,0 0.18535,0 0.26139,-0.05684l24.85137,-12.37603l0,13.40381c0.03326,3.3107 0.63685,6.59297 1.79174,9.7l-1.79174,0c-5.3752,0 -9.73334,4.34321 -9.73334,9.7l0,38.80001c0,5.35679 4.35814,9.7 9.73334,9.7l136.2667,0c5.3752,0 9.73334,-4.34321 9.73334,-9.7l0,-38.80001c0,-5.35679 -4.35814,-9.7 -9.73334,-9.7l-1.79174,0c1.15488,-3.10703 1.75847,-6.38931 1.79174,-9.7l0,-38.80001l107.06669,0l0,29.10001c0,5.35679 4.35814,9.7 9.73334,9.7l48.66668,0l0,54.55304l-62.81993,71.54698l-209.71346,0c-5.3752,0 -9.73334,4.34321 -9.73334,9.7l0,213.40004c0,16.07037 13.07441,29.10001 29.20001,29.10001l38.93334,0c16.12559,0 29.20001,-13.02964 29.20001,-29.10001l0,-164.90003l146.00003,0c2.75652,0 5.3847,-1.16987 7.23346,-3.21123l87.60002,-97.00002c1.60639,-1.78086 2.49987,-4.09219 2.49987,-6.48877l0,-203.70004c0,-5.35679 -4.35814,-9.7 -9.73334,-9.7z"/>
  </g>
 </g>
</svg>