<svg width="800" height="600" xmlns="http://www.w3.org/2000/svg">
 <g>
  <title>Cinema</title>
  <!-- Created with Method Draw - http://github.com/duopixel/Method-Draw/ -->
  <g id="svg_13">
   <g transform="matrix(0.992411, 0, 0, 0.992411, -5.32799, -1050.31)" id="svg_12">
    <title fill="#ffffaa">Camera</title>
    <g id="svg_7">
     <g transform="matrix(0.0615688, 0, 0, -0.058834, -1.81829, -368.333)" fill="#000000" id="svg_8">
      <path d="m7608.48037,-24355.51622c-577,-56 -1110,-268 -1547,-617c-117,-94 -316,-288 -417,-408c-289,-344 -516,-810 -604,-1241c-12,-60 -27,-114 -33,-120c-6,-6 -78,-23 -161,-38c-82,-15 -157,-29 -166,-32c-12,-3 -35,24 -84,96c-275,414 -659,725 -1122,909c-465,185 -1034,212 -1518,72c-300,-86 -574,-226 -825,-420c-117,-90 -330,-306 -419,-424c-204,-273 -352,-583 -424,-892c-114,-484 -78,-987 103,-1439c142,-357 383,-690 685,-946c235,-199 590,-388 868,-462l87,-23l0,-132l0,-133l-239,0c-140,0 -241,4 -243,9c-2,6 -131,57 -287,115l-284,106l-199,0c-109,0 -198,-2 -198,-5c0,-4 617,-1291 626,-1306c2,-3 56,8 120,26l116,31l66,107l65,107l229,0l228,0l0,-1490l0,-1490l4150,0l4150,0l0,2475l0,2475l-322,0l-322,0l45,37c410,344 741,860 893,1394c125,438 143,919 51,1375c-106,523 -371,1023 -750,1413c-401,413 -875,680 -1436,810c-241,56 -645,84 -882,61zm-2199,-4387c126,-206 274,-386 471,-574l134,-129l-742,0c-409,0 -741,3 -739,8c2,4 33,52 69,107c110,164 225,400 269,551l12,41l147,28c131,25 314,61 318,64c0,1 28,-43 61,-96zm4196,-4678c93,-45 146,-130 146,-235c0,-76 -21,-129 -71,-178c-54,-55 -104,-76 -184,-76c-79,-1 -130,20 -185,76c-129,129 -77,357 97,423c50,19 147,14 197,-10z" id="svg_10" fill="#ffffaa"/>
      <path d="m12281.48037,-29585.51622l-724,-440l-573,0l-573,0l2,-1102l3,-1103l580,-5l580,-5l715,-434c393,-238 718,-435 723,-438c4,-2 7,889 7,1981c0,1092 -3,1986 -7,1986c-5,-1 -334,-199 -733,-440z" id="svg_9" fill="#ffffaa"/>
     </g>
    </g>
   </g>
  </g>
 </g>
</svg>