<svg width="24" height="24" xmlns="http://www.w3.org/2000/svg">

 <g>
  <title>background</title>
  <rect fill="none" id="canvas_background" height="602" width="802" y="-1" x="-1"/>
 </g>
 <g>
  <title>Layer 1</title>
  <g id="svg_1">
   <g id="svg_2">
    <path fill="#FFDBD2" id="svg_3" fill-rule="evenodd" d="m19.779,3.349l-1.111,1.664c2.031,1.65 3.332,4.166 3.332,6.987c0,2.822 -1.301,5.338 -3.332,6.988l1.111,1.663c2.566,-2.012 4.221,-5.135 4.221,-8.651c0,-3.515 -1.654,-6.638 -4.221,-8.651zm-2.229,3.338l-1.122,1.68c0.968,0.913 1.58,2.198 1.58,3.634s-0.612,2.722 -1.58,3.635l1.122,1.68c1.497,-1.286 2.45,-3.188 2.45,-5.316c0,-2.127 -0.952,-4.029 -2.45,-5.313zm-5.55,-5.687c-1.177,0 -1.533,0.684 -1.533,0.684s-3.061,3.363 -5.169,4.847c-0.388,0.247 -0.814,0.469 -1.568,0.469l-1.73,0c-1.104,0 -2,0.896 -2,2l0,6c0,1.104 0.896,2 2,2l1.73,0c0.754,0 1.18,0.222 1.567,0.469c2.108,1.484 5.169,4.848 5.169,4.848s0.357,0.683 1.534,0.683c1.104,0 2,-0.895 2,-2l0,-18c0,-1.105 -0.896,-2 -2,-2z" clip-rule="evenodd"/>
   </g>
  </g>
 </g>
</svg>