<svg width="511.979" height="511.979" xmlns="http://www.w3.org/2000/svg">
 <g>
  <title>background</title>
  <rect x="-1" y="-1" width="513.979" height="513.979" id="canvas_background" fill="none"/>
 </g>

 <g>
  <title>Layer 1</title>
  <ellipse fill="none" stroke="#EEFF9F" stroke-width="50" cx="254.4895" cy="254.9895" id="svg_4" rx="227" ry="227"/>
  <g id="svg_8" fill="#C48157" stroke-width="50">
   <g id="svg_1">
    <path d="m345.65819,284.16213c0,-20.74197 -17.22979,-37.61691 -38.40793,-37.61691l-12.80265,0l0,-29.86699l21.23191,-10.39732c0.94313,-0.46228 2.04245,-0.41378 2.93948,0.12957s1.43389,1.48461 1.43389,2.51781c0,6.92487 5.73218,12.53897 12.80265,12.53897s12.80265,-5.61412 12.80265,-12.53897c0,-9.78793 -5.07582,-18.70398 -13.57677,-23.84996c-8.50181,-5.14682 -18.91548,-5.60575 -27.85344,-1.22799l-16.85768,8.25482l-12.95969,-25.38557c11.92866,-6.38986 20.037,-18.79675 20.037,-33.02515c0,-6.92487 -5.73218,-12.53897 -12.80265,-12.53897s-12.80265,5.61412 -12.80265,12.53897c0,6.91399 -5.74327,12.53897 -12.80265,12.53897l-51.21058,0c-7.05938,0 -12.80265,-5.62499 -12.80265,-12.53897c0,-6.92487 -5.73218,-12.53897 -12.80265,-12.53897s-12.80265,5.61412 -12.80265,12.53897c0,14.22839 8.10834,26.63528 20.037,33.02599l-12.95969,25.38557l-16.85682,-8.25482c-8.93966,-4.37778 -19.35162,-3.91885 -27.85344,1.22713c-8.50181,5.14599 -13.57764,14.06204 -13.57764,23.84996c0,6.92487 5.73218,12.53897 12.80265,12.53897s12.80265,-5.61412 12.80265,-12.53897c0,-1.0332 0.53601,-1.97448 1.43389,-2.51781c0.89788,-0.54335 1.99636,-0.59184 2.94034,-0.12957l21.31641,10.39732l0,29.86699l-12.88799,0c-21.17814,0 -38.40793,16.87494 -38.40793,37.61691c0,6.92487 5.73218,12.53897 12.80265,12.53897s12.80265,-5.61412 12.80265,-12.53897c0,-6.91399 5.74327,-12.53897 12.80265,-12.53897l14.09059,0c2.03476,9.77622 6.41157,18.72236 12.51159,26.27666c-8.74335,8.91604 -13.71419,20.89076 -13.71419,33.76828l0,2.6499c0,6.92487 5.64683,12.53897 12.71729,12.53897s12.80265,-5.61412 12.80265,-12.53897l0,-2.65073c0,-6.80114 2.89937,-13.08567 7.84632,-17.50859c9.08732,4.85677 19.50099,7.62034 30.56163,7.62034s21.47431,-2.76359 30.56163,-7.62034c4.94693,4.42291 7.93167,10.70744 7.93167,17.50859l0,2.65073c0,6.92487 5.64683,12.53897 12.71729,12.53897s12.80265,-5.61412 12.80265,-12.53897l0,-2.65073c0,-12.87751 -5.05619,-24.85224 -13.79955,-33.76828c6.10005,-7.55348 10.47683,-16.49961 12.51159,-26.27584l14.09059,0c7.05938,0 12.80265,5.62499 12.80265,12.53897c0,6.92487 5.73218,12.53897 12.80265,12.53897s12.80265,-5.61412 12.80265,-12.53897l-0.00001,0l-0.00001,0.00001l0.00001,0zm-97.5314,-112.85074l12.80265,25.07795l-60.99095,0l12.80265,-25.07795l35.38565,0l-0.00001,0l0.00001,0zm-56.10034,87.7728l0,-37.61691l25.69064,0l0,73.07711c-14.90142,-5.17608 -25.69064,-19.11358 -25.69064,-35.46022l0,0.00001zm51.21058,-37.61691l25.69064,0l0,37.61691c0,16.34664 -10.7892,30.28412 -25.69064,35.46022l0,-73.07711l0,-0.00001z" id="svg_2" fill="#EEFF9F"/>
    <path d="m230.43437,70.9996c-91.77192,0 -166.43437,73.12478 -166.43437,163.00662s74.66247,163.00662 166.43437,163.00662c32.00149,0 61.91702,-8.90017 87.31746,-24.29384c6.82636,6.68577 110.87091,108.5875 117.68447,115.25989c14.97396,14.66557 39.33827,14.66557 54.3131,0c14.97312,-14.66557 14.97312,-38.52891 0,-53.19451l-117.68532,-115.25906c15.71738,-24.87732 24.8047,-54.17672 24.8047,-85.51914c0,-89.88186 -74.66247,-163.00662 -166.43437,-163.00662l-0.00001,0l0,0.00001l-0.00003,0.00003zm-140.8291,163.00662c0,-76.05387 63.17594,-137.92869 140.8291,-137.92869s140.8291,61.87481 140.8291,137.92869s-63.17594,137.92869 -140.8291,137.92869s-140.8291,-61.87396 -140.8291,-137.92869zm382.03775,236.2409c-4.99132,4.88852 -13.11162,4.88685 -18.10209,0l-69.47313,-68.04231l18.10209,-17.72927l69.47313,68.04231c4.99132,4.8877 4.99048,12.84075 0,17.72927zm-87.57862,-103.50419l-18.10209,17.72927l-27.29779,-26.73559c6.48495,-5.44945 12.53805,-11.37787 18.10209,-17.72927l27.29779,26.73559z" id="svg_3" fill="#EEFF9F"/>
   </g>
   <g id="svg_7">
    <path d="m336.50386,282.16008c0,-19.34577 -16.07003,-35.08483 -35.82261,-35.08483l-11.94087,0l0,-27.85659l19.80274,-9.69745c0.87965,-0.43115 1.90496,-0.38593 2.74162,0.12084s1.33737,1.38469 1.33737,2.34834c0,6.45874 5.34632,11.69495 11.94087,11.69495s11.94087,-5.23621 11.94087,-11.69495c0,-9.12908 -4.73416,-17.44498 -12.66289,-22.24456c-7.92953,-4.80037 -17.64223,-5.22842 -25.97856,-1.14532l-15.72294,7.69916l-12.08734,-23.67681c11.12571,-5.95974 18.68827,-17.53151 18.68827,-30.80216c0,-6.45874 -5.34632,-11.69495 -11.94087,-11.69495s-11.94087,5.23621 -11.94087,11.69495c0,6.4486 -5.35669,11.69495 -11.94087,11.69495l-47.76349,0c-6.5842,0 -11.94087,-5.24636 -11.94087,-11.69495c0,-6.45874 -5.34632,-11.69495 -11.94087,-11.69495s-11.94087,5.23621 -11.94087,11.69495c0,13.27065 7.56255,24.84241 18.68827,30.80294l-12.08734,23.67681l-15.72216,-7.69916c-8.33792,-4.0831 -18.04903,-3.65506 -25.97856,1.14454c-7.92953,4.7996 -12.6637,13.1155 -12.6637,22.24456c0,6.45874 5.34632,11.69495 11.94087,11.69495s11.94087,-5.23621 11.94087,-11.69495c0,-0.96366 0.49993,-1.84157 1.33737,-2.34834c0.83745,-0.50678 1.86198,-0.55201 2.74241,-0.12084l19.88155,9.69745l0,27.85659l-12.02047,0c-19.75258,0 -35.82261,15.73906 -35.82261,35.08483c0,6.45874 5.34632,11.69495 11.94087,11.69495s11.94087,-5.23621 11.94087,-11.69495c0,-6.4486 5.35669,-11.69495 11.94087,-11.69495l13.14213,0c1.89779,9.11816 5.97998,17.46211 11.66941,24.50793c-8.15481,8.31588 -12.79106,19.48456 -12.79106,31.49526l0,2.47153c0,6.45874 5.26673,11.69495 11.86126,11.69495s11.94087,-5.23621 11.94087,-11.69495l0,-2.47231c0,-6.34334 2.7042,-12.20485 7.31817,-16.33004c8.47564,4.52985 18.18834,7.1074 28.50445,7.1074s20.02883,-2.57757 28.50445,-7.1074c4.61395,4.1252 7.39777,9.9867 7.39777,16.33004l0,2.47231c0,6.45874 5.26673,11.69495 11.86126,11.69495s11.94087,-5.23621 11.94087,-11.69495l0,-2.47231c0,-12.0107 -4.71584,-23.17938 -12.87066,-31.49526c5.68944,-7.04504 9.7716,-15.38899 11.66941,-24.50715l13.14213,0c6.5842,0 11.94087,5.24636 11.94087,11.69495c0,6.45874 5.34632,11.69495 11.94087,11.69495s11.94087,-5.23621 11.94087,-11.69495l-0.00001,0l-0.00001,0.00001l0.00003,-0.00001zm-90.96636,-105.25452l11.94087,23.3899l-56.88551,0l11.94087,-23.3899l33.00378,0l-0.00001,0zm-52.3241,81.86463l0,-35.08483l23.96135,0l0,68.15814c-13.89838,-4.82767 -23.96135,-17.827 -23.96135,-33.07332l0,0.00001zm47.76349,-35.08483l23.96135,0l0,35.08483c0,15.24632 -10.06296,28.24563 -23.96135,33.07332l0,-68.15814l0,-0.00001z" id="svg_5" fill="#EEFF9F"/>
    <path d="m229.036,83.34599c-85.59456,0 -155.23133,68.2026 -155.23133,152.0343s69.63678,152.0343 155.23133,152.0343c29.8474,0 57.74925,-8.30108 81.43993,-22.65857c6.36687,6.23575 103.40796,101.27825 109.76288,107.50151c13.96604,13.67841 36.69032,13.67841 50.65716,0c13.96524,-13.67841 13.96524,-35.93546 0,-49.61387l-109.76368,-107.50073c14.6594,-23.20278 23.13504,-50.52997 23.13504,-79.76265c0,-83.83172 -69.63678,-152.0343 -155.23133,-152.0343l-0.00001,0l0,0.00001l0.00001,-0.00001zm-131.34959,152.0343c0,-70.93452 58.92342,-128.64442 131.34959,-128.64442s131.34959,57.70988 131.34959,128.64442s-58.92342,128.64442 -131.34959,128.64442s-131.34959,-57.7091 -131.34959,-128.64442zm356.32198,220.33903c-4.65534,4.55947 -12.22905,4.5579 -16.88359,0l-64.79675,-63.46224l16.88359,-16.53587l64.79675,63.46224c4.65534,4.5587 4.65456,11.9764 0,16.53587zm-81.68352,-96.53711l-16.88359,16.53587l-25.46033,-24.93597c6.04845,-5.08264 11.69409,-10.61199 16.88359,-16.53587l25.46033,24.93597z" id="svg_6" fill="#EEFF9F"/>
   </g>
  </g>
 </g>
</svg>