<svg width="512" height="512" xmlns="http://www.w3.org/2000/svg">

 <g>
  <title>background</title>
  <rect fill="none" id="canvas_background" height="602" width="802" y="-1" x="-1"/>
 </g>
 <g>
  <title>Layer 1</title>
  <path id="svg_1" fill="#EEFF9F" d="m145.69231,56l-75.38462,0c-6.24486,0 -11.30769,6.716 -11.30769,15l0,380c0,8.284 5.06283,15 11.30769,15l75.38462,0c6.24486,0 11.30769,-6.716 11.30769,-15l0,-380c0,-8.284 -5.06283,-15 -11.30769,-15z"/>
  <path id="svg_2" fill="#EEFF9F" d="m290.92308,95l-73.84616,0c-6.11742,0 -11.07692,6.716 -11.07692,15l0,300c0,8.284 4.95951,15 11.07692,15l73.84616,0c6.11742,0 11.07692,-6.716 11.07692,-15l0,-300c0,-8.284 -4.95951,-15 -11.07692,-15z"/>
  <path id="svg_3" fill="#EEFF9F" d="m436.26923,137l-71.53846,0c-5.92625,0 -10.73077,6.716 -10.73077,15l0,220c0,8.284 4.80452,15 10.73077,15l71.53846,0c5.92625,0 10.73077,-6.716 10.73077,-15l0,-220c0,-8.284 -4.80452,-15 -10.73077,-15z"/>
  <g id="svg_7"/>
  <g id="svg_8"/>
  <g id="svg_9"/>
  <g id="svg_10"/>
  <g id="svg_11"/>
  <g id="svg_12"/>
  <g id="svg_13"/>
  <g id="svg_14"/>
  <g id="svg_15"/>
  <g id="svg_16"/>
  <g id="svg_17"/>
  <g id="svg_18"/>
  <g id="svg_19"/>
  <g id="svg_20"/>
  <g id="svg_21"/>
 </g>
</svg>