<svg id="Layer_3" enable-background="new 0 0 64 64" height="512" viewBox="0 0 64 64" width="512" xmlns="http://www.w3.org/2000/svg"><g><path d="m17 32.166v-.332l-10.09-1.834h-3.91v4h3.91z"/><path d="m7.333 35.956-.154.028c-.059.011-.119.016-.179.016h-1.68c1.741 11.653 11.027 20.939 22.68 22.68v-1.68c0-.06.005-.12.016-.179l.028-.154c-10.67-1.696-19.015-10.041-20.711-20.711z"/><path d="m7.179 28.016.145.026c1.692-10.567 10.086-19.01 20.72-20.707l-.028-.156c-.011-.059-.016-.119-.016-.179v-1.68c-11.653 1.741-20.939 11.027-22.68 22.68h1.68c.06 0 .12.005.179.016z"/><path d="m31.834 47-1.834 10.09v3.91h4v-3.91l-1.834-10.09z"/><path d="m56.667 28.044.154-.028c.059-.011.119-.016.179-.016h1.68c-1.741-11.653-11.027-20.939-22.68-22.68v1.68c0 .06-.005.12-.016.179l-.028.154c10.67 1.696 19.015 10.041 20.711 20.711z"/><path d="m32.166 17 1.834-10.09v-3.91h-4v3.91l1.834 10.09z"/><path d="m56.821 35.984-.154-.028c-1.696 10.671-10.041 19.015-20.711 20.711l.028.154c.011.059.016.119.016.179v1.68c11.653-1.741 20.939-11.027 22.68-22.68h-1.68c-.06 0-.12-.005-.179-.016z"/><path d="m40.293 41.707 1.414-1.414 7.248 7.248c2.98-3.252 5.027-7.363 5.746-11.942l-8.88-1.615c-.475-.087-.821-.501-.821-.984v-2c0-.483.346-.897.821-.984l8.88-1.615c-.719-4.579-2.766-8.691-5.746-11.942l-7.248 7.248-1.414-1.414 7.248-7.248c-3.252-2.98-7.363-5.027-11.942-5.746l-1.615 8.88c-.087.475-.501.821-.984.821h-2c-.483 0-.897-.346-.984-.821l-1.614-8.879c-4.558.719-8.669 2.778-11.922 5.766l7.227 7.227-1.414 1.414-7.225-7.225c-2.992 3.264-5.057 7.377-5.775 11.919l8.886 1.616c.475.086.821.5.821.983v2c0 .483-.346.897-.821.984l-8.88 1.615c.719 4.579 2.766 8.691 5.746 11.942l7.248-7.248 1.414 1.414-7.248 7.248c3.252 2.98 7.363 5.027 11.942 5.746l1.615-8.88c.087-.475.501-.821.984-.821h2c.483 0 .897.346.984.821l1.615 8.88c4.579-.719 8.691-2.766 11.942-5.746zm-6.293-10.707v3c0 .552-.448 1-1 1h-3.219l-.811 3.243c-.111.445-.511.757-.97.757h-5c-.308 0-.599-.142-.788-.385s-.257-.559-.182-.858l1.689-6.757h-.719c-.552 0-1-.448-1-1v-4c0-.552.448-1 1-1h15v-2h2v2h1c.552 0 1 .448 1 1v4c0 .552-.448 1-1 1z"/><path d="m57.09 30-10.09 1.834v.332l10.09 1.834h3.91v-4z"/><path d="m30.281 33h1.719v-2h-1.219z"/><path d="m24.281 37h2.938l1.5-6h-2.938z"/><path d="m24 27h16v2h-16z"/></g></svg>