<svg width="1000" height="1000" xmlns="http://www.w3.org/2000/svg">
 <metadata>Svg Vector Icons : http://www.onlinewebfonts.com/icon</metadata>

 <g>
  <title>background</title>
  <rect x="-1" y="-1" width="2002.00002" height="2002.00002" id="canvas_background" fill="none"/>
 </g>
 <g>
  <title>Layer 1</title>
  <g id="svg_1">
   <path d="m984,602.1c-30.6,-275.5 -86.7,-474 -264.8,-474c-91.6,0 -136,93.3 -219.2,100.7c-83.1,-7.5 -127.6,-100.8 -219.2,-100.8c-178.1,0 -234.2,198.5 -264.8,474.1c-16.4,147.9 -2.8,270.4 87.6,269.9c127.4,0 132.4,-116.2 222.1,-169.6c34.3,-17.1 111.3,-24.4 174.3,-27.2c63,2.8 140,10.1 174.3,27.3c89.7,53.3 94.7,169.5 222.1,169.5c90.4,0.5 104,-122 87.6,-269.9zm-700.3,-24.7c-70.2,0 -127.1,-56.9 -127.1,-127.1c0,-70.2 56.9,-127.1 127.1,-127.1c70.2,0 127.1,56.9 127.1,127.1c0.1,70.1 -56.8,127.1 -127.1,127.1zm572.3,-101.7l-99.9,0l0,99.9l-48.4,0l0,-99.9l-99.9,0l0,-48.4l99.9,0l0,-99.9l48.4,0l0,99.9l99.9,0l0,48.4l0,0z" id="svg_2" fill="#EEFF9F"/>
   <path d="m211.1,450.2c0,40.1 32.5,72.7 72.7,72.7s72.6,-32.5 72.6,-72.7l0,0c0,-40.1 -32.5,-72.7 -72.6,-72.7s-72.7,32.6 -72.7,72.7z" id="svg_3" fill="#EEFF9F"/>
  </g>
 </g>
</svg>