<svg width="1000" height="1000" xmlns="http://www.w3.org/2000/svg">
 <metadata>Svg Vector Icons : http://www.onlinewebfonts.com/icon</metadata>

 <g>
  <title>background</title>
  <rect fill="none" id="canvas_background" height="602" width="802" y="-1" x="-1"/>
 </g>
 <g>
  <title>Layer 1</title>
  <g id="svg_1">
   <path fill="#CC7C65" id="svg_2" d="m500,230.1c170,0 323.8,69.8 434.8,182l55.2,-55.1c-125.1,-126.4 -298.5,-205 -490,-205s-364.9,78.6 -490,205l55.2,55.2c111,-112.3 264.8,-182.1 434.8,-182.1z"/>
   <path fill="#CC7C65" id="svg_3" d="m500,392.9c125.1,0 238.3,51.5 319.8,134.3l55.2,-55.2c-95.6,-97 -228.3,-157.2 -375,-157.2c-146.6,0 -279.4,60.3 -375,157.2l55.2,55.2c81.5,-82.8 194.7,-134.3 319.8,-134.3z"/>
   <path fill="#CC7C65" id="svg_4" d="m500,555.6c80.2,0 152.8,33.3 204.8,86.5l55.2,-55.2c-66.2,-67.4 -158.3,-109.4 -260,-109.4c-101.7,0 -193.8,42 -260,109.5l55.2,55.2c52,-53.3 124.6,-86.6 204.8,-86.6z"/>
   <path fill="#CC7C65" id="svg_5" d="m640.8,707.2c-35.5,-37.1 -85.3,-60.5 -140.8,-60.5c-55.4,0 -105.2,23.3 -140.8,60.5l140.8,140.8l140.8,-140.8z"/>
  </g>
 </g>
</svg>