<svg width="1000" height="1000" xmlns="http://www.w3.org/2000/svg">
 <metadata>Svg Vector Icons : http://www.onlinewebfonts.com/icon</metadata>

 <g>
  <title>background</title>
  <rect fill="none" id="canvas_background" height="602" width="802" y="-1" x="-1"/>
 </g>
 <g>
  <title>Layer 1</title>
  <g id="svg_1">
   <path fill="#FFDFB8" id="svg_2" d="m886,737.7c65.2,25.7 104,57.9 104,93.1c0,83.4 -219.4,151.1 -490,151.1c-270.6,0 -490,-67.7 -490,-151.1c0,-35.1 38.8,-67.4 104,-93.1c-15.6,10.9 -24.2,22.5 -24.2,34.7c0,56.7 183.7,102.6 410.2,102.6c226.6,0 410.2,-45.9 410.2,-102.6c-0.1,-12.1 -8.6,-23.8 -24.2,-34.7l0,0zm-626.6,-686.6c49.2,0 89.1,39.9 89.1,89.1c0,49.2 -39.9,89.1 -89.1,89.1c-49.2,0 -89.1,-39.9 -89.1,-89.1c0,-49.2 39.9,-89.1 89.1,-89.1l0,0zm479.8,0c-49.2,0 -89,39.9 -89,89.1c0,49.2 39.9,89.1 89,89.1c49.2,0 89.1,-39.9 89.1,-89.1c0,-49.2 -39.9,-89.1 -89.1,-89.1l0,0zm-88,512.3l0,234.8l62.8,0l25.1,-164.6l25.1,164.6l68.4,0l0,-260c27.1,-14.1 45.7,-42.5 45.7,-75.1l0,-133.1c0,-46.5 -38,-84.6 -84.6,-84.6l-104,0c-6.7,0 -13.3,0.8 -19.5,2.3c13.9,21.3 22,46.7 22,73.9l0,144.8c-0.1,37.1 -15.3,71.8 -41,97l0,0zm-149.7,-545.2c53.5,0 96.9,43.4 96.9,96.9c0,53.5 -43.4,96.9 -96.9,96.9c-53.5,0 -96.9,-43.4 -96.9,-96.9c-0.1,-53.6 43.3,-96.9 96.9,-96.9l0,0zm95.7,530.1c29.7,-15.3 50.2,-46.3 50.2,-81.9l0,-144.7c0,-50.6 -41.4,-92 -92,-92l-113.2,0c-50.7,0 -92,41.4 -92,92l0,144.8c0,35.4 20.3,66.3 49.8,81.7l0,282.9l74.4,0l27.2,-179.1l27.3,179.1l68.3,0l0,-282.8l0,0zm-249.8,15.1c-25.7,-25.1 -40.9,-59.9 -40.9,-96.9l0,-144.8c0,-27.3 8.1,-52.6 22,-73.9c-6.3,-1.5 -12.8,-2.3 -19.6,-2.3l-103.9,0c-46.6,0 -84.6,38 -84.6,84.6l0,133c0,32.6 18.6,60.9 45.7,75.1l0,260l68.3,0l25.1,-164.6l25.1,164.6l62.8,0l0,-234.8z"/>
  </g>
 </g>
</svg>