<svg width="1000" height="1000" xmlns="http://www.w3.org/2000/svg">
 <metadata>Svg Vector Icons : http://www.onlinewebfonts.com/icon</metadata>

 <g>
  <title>background</title>
  <rect fill="none" id="canvas_background" height="602" width="802" y="-1" x="-1"/>
 </g>
 <g>
  <title>Layer 1</title>
  <g id="svg_1">
   <path fill="#FFDFB8" id="svg_2" d="m785.6,990c-105.3,0 -399.9,0 -477.9,0c-5.6,0 -179.9,-234 -202.8,-289c-16.1,-38.6 -6.1,-81.2 17.8,-114.2c26.9,-37.1 83.2,-71.9 129.9,-46.8c53.1,28.5 114.8,33 114.8,33s0,-175.7 0,-206.4c0,-27.9 15.7,-90.3 118.9,-90.3c91.1,0 118.4,63.3 118.4,92.1c0,24.1 0.1,145.5 0.1,145.5s275.8,46.8 297.5,154.5c8.5,42.7 -64.7,321.6 -116.7,321.6zm28,-286.8c-13.7,-97.4 -267.3,-114 -267.3,-114l-0.6,-174.4c0,0 -5.5,-47.5 -61.4,-49.5c-51.5,-1.8 -57.8,50.9 -57.8,50.9l0,275.5c0,0 -65.4,9.2 -86.8,-13.2c-37.4,-39.1 -99.3,-100.7 -145.3,-64.6c-21.9,17.2 -15.9,55.5 -2.5,84c17.7,38 148.1,202.8 148.1,202.8l410.9,0c0,0 71.5,-134.9 62.7,-197.5zm-111.2,-351c-25.6,0 -46.3,-20.9 -46.3,-46.6c0,-9.6 0,-23.2 0,-31.1c0,-94.5 -76,-171.1 -169.8,-171.1s-169.8,76.6 -169.8,171.1c0,7.9 0,21.6 0,31.1c0,25.8 -20.7,46.6 -46.3,46.6s-46.3,-20.9 -46.3,-46.7c0,-8.2 0,-21.6 0,-31.1c0,-146 117.5,-264.4 262.5,-264.4c145,0 262.5,118.4 262.5,264.4c0,9.5 0,22.9 0,31.1c-0.2,25.8 -20.9,46.7 -46.5,46.7z"/>
  </g>
 </g>
</svg>