<svg width="1000" height="1000" xmlns="http://www.w3.org/2000/svg">
 <metadata>Svg Vector Icons : http://www.onlinewebfonts.com/icon</metadata>

 <g>
  <title>background</title>
  <rect x="-1" y="-1" width="1002" height="1002" id="canvas_background" fill="none"/>
 </g>
 <g>
  <title>Layer 1</title>
  <g id="svg_1">
   <path d="m481.26667,542.3l-215.9,-109.5c-4.9,-2.5 -10.4,-2.3 -15,-0.2l0,0l-230.7,109.6c-6.4,2.5 -11,8.8 -11,16.2l0,299l0.1,0c0,6.1 3.2,12.1 8.9,15.2l223.3,122.4l0.1,0.1l0.1,0l0.1,0.1l0.1,0.1l0.1,0.1l0.1,0.1l0.1,0.1l0.1,0.1l0.1,0.1l0.1,0.1l0.1,0l0.1,0l0.1,0.1l0.2,0.1l0.1,0l0.1,0l0.1,0.1l0.3,0.1l0.1,0.1l0.2,0.1l0.1,0.1l0.1,0.1l0.1,0l0.1,0l0.2,0.1l0.1,0.1l0.1,0l0.1,0l0.2,0.1l0.2,0.1l0.2,0.1l0.1,0.1l0.1,0l0.1,0l0.1,0l0.2,0.1l0.1,0l0.1,0l0.2,0l0.1,0.1l0,0l0.1,0l0.2,0l0.1,0l0,0l0.2,0l0.2,0l0.1,0l0.1,0l0.2,0.1l0.2,0l0.1,0l0.1,0l0.2,0l0.2,0l0.2,0l0.2,0l0.1,0l0.1,0l0.2,0l0.2,0l0.1,0l0.1,0l0.2,0l0.2,0l0.1,0l0.1,0l0.2,0l0.1,0l0,0l0.2,0l0.2,0l0.1,0l0.1,0l0.2,0l0.2,0l0.1,0l0.1,0l0.3,0l0.4,0l0.1,0l0.1,0l0.2,0l0.2,0l0.1,0l0.1,0l0.2,0l0.2,0l0,0l0.1,0l0.2,0l0.1,0l0.2,0l0.2,0l0.1,0l0.1,0l0.2,0l0.2,0l0.1,0l0.1,0l0.2,0l0.2,0l0.2,0l0.2,0l0.1,0l0.1,0l0.2,0l0.2,-0.1l0,0l0.1,0l0.2,0l0.1,0l0,0l0.1,0l0.2,0l0.1,0l0,0l0.2,-0.1l0.2,0l0.1,0l0.1,0l0.2,-0.1l0.1,0l0.1,0l0.1,0l0.1,-0.1l0.2,-0.1l0.2,-0.1l0.1,-0.1l0.1,0l0.1,0l0.1,-0.1l0.2,-0.1l0.1,0l0.1,0l0.1,-0.1l0.2,-0.1l0.2,-0.1l0.1,-0.1l0.3,-0.1l0.1,-0.1l0.1,0l0.1,0l0.1,-0.1l0.1,-0.1l0.1,0l0.1,0l0.2,-0.1l0.1,-0.1l0.1,-0.1l0.1,-0.1l0.1,-0.1l0.1,-0.1l0.1,-0.1l0.1,-0.1l0.1,0l0.1,-0.1l223.3,-122.4c5.7,-3.1 8.9,-9.1 8.9,-15.2l0.1,0l0,-299c-2.2,-7.3 -6.7,-13.6 -13.1,-16.1zm-223.8,-74.8l48.6,24.6l-187.2,97.6l-55.1,-30.2l193.7,-92zm-24.2,483.9l-190.2,-104.3l0,-259.6l58,31.8l0,57.4l43,20.3l0,-54.2l89.2,48.9l0,259.7l0,0zm17.1,-289.6l-86,-47.1l189,-98.6l84.5,42.9l-187.5,102.8z" id="svg_2" fill="#B6C7EA"/>
   <path d="m977.76667,542.3l-215.9,-109.5c-4.9,-2.5 -10.4,-2.3 -15,-0.2l0,0l-230.8,109.6c-6.4,2.5 -11,8.8 -11,16.2l0,299l0.1,0c0,6.1 3.2,12.1 8.9,15.2l223.4,122.4l0.1,0.1l0.1,0l0.1,0.1l0.1,0.1l0.1,0.1l0.1,0.1l0.1,0.1l0.1,0.1l0.1,0.1l0.1,0.1l0.1,0l0.1,0l0.1,0.1l0.2,0.1l0.1,0l0.1,0l0.1,0.1l0.3,0.1l0.1,0.1l0.2,0.1l0.1,0.1l0.1,0.1l0.1,0l0.1,0l0.2,0.1l0.1,0.1l0.1,0l0.1,0l0.2,0.1l0.2,0.1l0.2,0.1l0.1,0.1l0.1,0l0.1,0l0.1,0l0.2,0.1l0.1,0l0.1,0l0.2,0l0.1,0.1l0,0l0.1,0l0.2,0l0.1,0l0,0l0.2,0l0.2,0l0.1,0l0.1,0l0.2,0.1l0.2,0l0.1,0l0.1,0l0.2,0l0.2,0l0.2,0l0.2,0l0.1,0l0.1,0l0.2,0l0.2,0l0.1,0l0.1,0l0.2,0l0.2,0l0.1,0l0.1,0l0.2,0l0.1,0l0,0l0.2,0l0.2,0l0.1,0l0.1,0l0.2,0l0.2,0l0.1,0l0.1,0l0.3,0l0.4,0l0.1,0l0.1,0l0.2,0l0.2,0l0.1,0l0.1,0l0.2,0l0.2,0l0,0l0.1,0l0.2,0l0.1,0l0.2,0l0.2,0l0.1,0l0.1,0l0.2,0l0.2,0l0.1,0l0.1,0l0.2,0l0.2,0l0.2,0l0.2,0l0.1,0l0,0l0.2,0l0.2,-0.1l0,0l0.1,0l0.2,0l0.1,0l0,0l0.1,0l0.2,0l0.1,0l0,0l0.2,-0.1l0.2,0l0.1,0l0.1,0l0.2,-0.1l0.1,0l0.1,0l0.1,0l0.1,-0.1l0.2,-0.1l0.2,-0.1l0.1,-0.1l0.1,0l0.1,0l0.1,-0.1l0.2,-0.1l0.1,0l0.1,0l0.1,-0.1l0.2,-0.1l0.2,-0.1l0.1,-0.1l0.3,-0.1l0.1,-0.1l0.1,0l0.1,0l0.1,-0.1l0.1,-0.1l0.1,0l0.1,0l0.2,-0.1l0.1,-0.1l0.1,-0.1l0.1,-0.1l0.1,-0.1l0.1,-0.1l0.1,-0.1l0.1,-0.1l0.1,0l0.1,-0.1l221.2,-122.4c5.7,-3.1 8.9,-9.1 8.9,-15.2l0.1,0l0,-299c0,-7.3 -4.5,-13.6 -10.9,-16.1zm-223.8,-74.8l48.6,24.6l-187.2,97.6l-55.1,-30.2l193.7,-92zm-24.3,483.9l-190.1,-104.3l0,-259.6l58,31.8l0,57.4l43,20.3l0,-54.2l89.2,48.9l0,259.7l-0.1,0zm17.2,-289.6l-86,-47.1l189,-98.6l84.5,42.9l-187.5,102.8z" id="svg_3" fill="#B6C7EA"/>
   <path d="m734.66667,113.5l-215.9,-109.5c-4.9,-2.5 -10.4,-2.3 -15,-0.2l0,0l-230.7,109.7c-6.4,2.5 -11,8.8 -11,16.2l0,299l0.1,0c0,6.1 3.2,12.1 8.9,15.2l223.3,122.4l0.1,0.1l0.1,0l0.1,0.1l0.1,0.1l0.1,0.1l0.1,0.1l0.1,0.1l0.1,0.1l0.1,0.1l0.1,0.1l0.1,0l0.1,0l0.1,0.1l0.2,0.1l0.1,0l0.1,0l0.1,0.1l0.3,0.1l0.1,0.1l0.2,0.1l0.1,0.1l0.1,0.1l0.1,0l0.1,0l0.2,0.1l0.1,0.1l0.1,0l0.1,0l0.2,0.1l0.2,0.1l0.2,0.1l0.1,0.1l0.1,0l0.1,0l0.1,0l0.2,0.1l0.1,0l0.1,0l0.2,0l0.1,0.1l0,0l0.1,0l0.2,0l0.1,0l0,0l0.2,0l0.2,0l0.1,0l0.1,0l0.2,0.1l0.2,0l0.1,0l0.1,0l0.2,0l0.2,0l0.2,0l0.2,0l0.1,0l0.1,0l0.2,0l0.2,0l0.1,0l0.1,0l0.2,0l0.2,0l0.1,0l0.1,0l0.2,0l0.1,0l0,0l0.2,0l0.2,0l0.1,0l0.1,0l0.2,0l0.2,0l0.1,0l0.1,0l0.3,0l0.4,0l0.1,0l0.1,0l0.2,0l0.2,0l0.1,0l0.1,0l0.2,0l0.2,0l0,0l0.1,0l0.2,0l0.1,0l0.2,0l0.2,0l0.1,0l0.1,0l0.2,0l0.2,0l0.1,0l0.1,0l0.2,0l0.2,0l0.2,0l0.2,0l0.1,0l0.1,0l0.2,0l0.2,-0.1l0,0l0.1,0l0.2,0l0.1,0l0,0l0.1,0l0.2,0l0.1,0l0,0l0.2,-0.1l0.2,0l0.1,0l0.1,0l0.2,-0.1l0.1,0l0.1,0l0.1,0l0.1,-0.1l0.2,-0.1l0.2,-0.1l0.1,-0.1l0.1,0l0.1,0l0.1,-0.1l0.2,-0.1l0.1,0l0.1,0l0.1,-0.1l0.2,-0.1l0.2,-0.1l0.1,-0.1l0.3,-0.1l0.1,-0.1l0.1,0l0.1,0l0.1,-0.1l0.1,-0.1l0.1,0l0.1,0l0.2,-0.1l0.1,-0.1l0.1,-0.1l0.1,-0.1l0.1,-0.1l0.1,-0.1l0.1,-0.1l0.1,-0.1l0.1,0l0.1,-0.1l221.2,-122.5c5.7,-3.1 8.9,-9.1 8.9,-15.2l0.1,0l0,-299c0,-7.3 -4.6,-13.6 -11,-16.1zm-211.5,-68.8l48.6,24.6l-187.2,97.6l-55.1,-30.2l193.7,-92zm-36.2,483.9l-190.2,-104.3l0,-259.6l58,31.8l0,57.5l43,20.3l0,-54.2l89.2,48.9l0,259.6l0,0zm16.9,-295.5l-86,-47.1l189,-98.6l84.5,42.9l-187.5,102.8z" id="svg_4" fill="#B6C7EA"/>
  </g>
 </g>
</svg>