<svg width="1000" height="1000" xmlns="http://www.w3.org/2000/svg">
 <metadata>Svg Vector Icons : http://www.onlinewebfonts.com/icon</metadata>

 <g>
  <title>background</title>
  <rect x="-1" y="-1" width="1002" height="1002" id="canvas_background" fill="none"/>
 </g>
 <g>
  <title>Layer 1</title>
  <g id="svg_1">
   <path d="m979,367.5l-453.2,-319c-3.5,-3.5 -7.5,-6.3 -11.7,-8.1c-13.4,-7.7 -31.7,-2.8 -42.6,11.5l-448.5,316.6c-13.9,9.8 -16,30.9 -4.8,47.2c11.3,16.2 31.7,21.4 45.6,11.6l31.3,-22.1l0,522.4c0,19.7 15.9,35.6 35.6,35.6c19.7,0 35.6,-15.9 35.6,-35.6l0,-572.7l334.7,-236.3l341.7,240.5l0,568.5c0,19.7 15.9,35.6 35.6,35.6c19.7,0 35.6,-15.9 35.6,-35.6l0,-518.3l24,16.9c13.9,9.8 34.4,4.6 45.7,-11.6c11.4,-16.2 9.3,-37.3 -4.6,-47.1zm-634.6,27.9l-77,0c-29.5,0 -35.6,6.1 -35.6,35.6l0,78.1c0,29.5 6.1,35.6 35.6,35.6l77,0c29.5,0 35.6,-6.1 35.6,-35.6l0,-78.1c0,-29.4 -6.1,-35.6 -35.6,-35.6zm0,191.2l-77,0c-29.5,0 -35.6,6.1 -35.6,35.6l0,78.1c0,29.5 6.1,35.6 35.6,35.6l77,0c29.5,0 35.6,-6.1 35.6,-35.6l0,-78.1c0,-29.5 -6.1,-35.6 -35.6,-35.6zm0,191.4l-77,0c-29.5,0 -35.6,6.1 -35.6,35.6l0,78.1c0,29.5 6.1,35.6 35.6,35.6l77,0c29.5,0 35.6,-6.1 35.6,-35.6l0,-78.1c0,-29.5 -6.1,-35.6 -35.6,-35.6zm201.6,0l-77,0c-29.5,0 -35.6,6.1 -35.6,35.6l0,78.1c0,29.5 6.1,35.6 35.6,35.6l77,0c29.5,0 35.6,-6.1 35.6,-35.6l0,-78.1c0.1,-29.5 -6,-35.6 -35.6,-35.6zm201.9,0l-77.3,0c-29.5,0 -35.6,6.1 -35.6,35.6l0,78.1c0,29.5 6.1,35.6 35.6,35.6l77.3,0c29.5,0 35.6,-6.1 35.6,-35.6l0,-78.1c0.1,-29.5 -6,-35.6 -35.6,-35.6zm-201.9,-191.4l-77,0c-29.5,0 -35.6,6.1 -35.6,35.6l0,78.1c0,29.5 6.1,35.6 35.6,35.6l77,0c29.5,0 35.6,-6.1 35.6,-35.6l0,-78.1c0.1,-29.5 -6,-35.6 -35.6,-35.6z" id="svg_2" fill="#EEFF9F"/>
  </g>
 </g>
</svg>