<svg width="477.867" height="477.867" xmlns="http://www.w3.org/2000/svg">

 <g>
  <title>background</title>
  <rect fill="none" id="canvas_background" height="602" width="802" y="-1" x="-1"/>
 </g>
 <g>
  <title>Layer 1</title>
  <g id="svg_1">
   <g id="svg_2">
    <path fill="#ffffff" id="svg_3" d="m392.533,0l-307.2,0c-47.105,0.056 -85.277,38.228 -85.333,85.333l0,307.2c0.056,47.105 38.228,85.277 85.333,85.333l307.2,0c47.105,-0.056 85.277,-38.228 85.333,-85.333l0,-307.2c-0.056,-47.105 -38.228,-85.277 -85.333,-85.333zm-170.666,443.733l-136.534,0c-28.277,0 -51.2,-22.923 -51.2,-51.2l0,-307.2c0,-28.277 22.923,-51.2 51.2,-51.2l136.533,0l0,409.6l0.001,0zm221.866,-51.2c0,28.277 -22.923,51.2 -51.2,51.2l-136.533,0l0,-187.733l187.733,0l0,136.533zm0,-170.666l-187.733,0l0,-187.734l136.533,0c28.277,0 51.2,22.923 51.2,51.2l0,136.534z"/>
   </g>
  </g>
  <g id="svg_4"/>
  <g id="svg_5"/>
  <g id="svg_6"/>
  <g id="svg_7"/>
  <g id="svg_8"/>
  <g id="svg_9"/>
  <g id="svg_10"/>
  <g id="svg_11"/>
  <g id="svg_12"/>
  <g id="svg_13"/>
  <g id="svg_14"/>
  <g id="svg_15"/>
  <g id="svg_16"/>
  <g id="svg_17"/>
  <g id="svg_18"/>
 </g>
</svg>