<svg width="1000" height="1000" xmlns="http://www.w3.org/2000/svg">
 <metadata>Svg Vector Icons : http://www.onlinewebfonts.com/icon</metadata>

 <g>
  <title>background</title>
  <rect x="-1" y="-1" width="1002" height="1002" id="canvas_background" fill="none"/>
 </g>
 <g>
  <title>Layer 1</title>
  <g id="svg_13">
   <g id="svg_1">
    <g transform="translate(0, 511) scale(0.1, -0.1)" id="svg_2">
     <path d="m1208.31009,4374.1837c-218.86433,-53.04588 -418.1358,-254.15895 -521.39295,-523.77039l-56.92144,-148.06719l0,-3745.73088l0,-3745.73088l56.92144,-148.06719c106.78574,-278.49086 302.52864,-470.72451 537.36439,-525.96141c131.67145,-30.90499 7772.79437,-30.90499 7904.46582,0c234.92862,55.2369 430.67151,247.47055 537.36439,525.96141l56.92144,148.06719l5.38572,3712.63487c3.52857,3655.20694 3.52857,3714.82589 -32.03572,3856.32c-44.47858,183.46955 -140.58574,340.30084 -279.4072,457.46304c-209.95004,174.59013 117.46431,161.32866 -4244.03654,159.13763c-2151.31471,-2.42166 -3920.15076,-11.18576 -3964.62934,-22.25621l-0.00001,0l0,0.00001zm7932.97298,-559.17274c67.60002,-44.16646 137.05717,-143.68514 161.94289,-232.01806c14.20714,-55.2369 19.59286,-722.57711 19.59286,-2408.74412l-1.76429,-2333.67268l-304.29291,386.77364c-167.23575,212.18351 -677.95014,868.45327 -1133.50736,1458.53101c-455.55723,590.07773 -847.04302,1089.5162 -871.92875,1109.35075c-58.68572,50.85485 -156.55717,50.85485 -218.86433,0c-26.65001,-19.94986 -475.1501,-579.00729 -994.6859,-1241.96545c-519.81439,-662.95816 -1026.90734,-1308.27279 -1128.30736,-1434.19909l-181.53575,-227.63601l-601.43583,751.40639c-439.49295,554.67538 -613.87869,757.97947 -653.06442,766.85889c-133.43574,37.59338 -108.55002,64.11632 -1162.01451,-1270.67941c-546.27868,-693.86315 -1000.07162,-1259.60897 -1007.22163,-1259.60897c-8.91429,0 -15.97143,1272.87043 -15.97143,2828.7291c0,3171.22096 -8.91429,2947.967 129.90716,3074.00862l71.22144,64.11632l3922.00791,0c3341.74351,-0.23063 3928.97219,-4.728 3969.9222,-31.25094l0.00001,0.00001zm-1311.51454,-3814.22925c514.33582,-662.95816 1055.22877,-1363.5097 1204.72881,-1558.04969l270.49291,-353.56231l-3.52857,-910.42871c-5.29286,-883.90577 -7.15001,-910.54403 -42.7143,-972.35401c-19.59286,-33.09602 -64.07144,-83.95087 -96.10716,-112.66483l-58.68572,-48.66383l-3922.00791,0c-4276.07226,0 -3964.7222,-8.87942 -4064.35794,125.9263c-74.75001,99.40336 -87.19288,183.46955 -87.19288,570.12787l0,360.2507l1062.37878,1352.43925l1064.14307,1352.43925l592.52155,-742.52697c325.65006,-408.79921 606.82155,-751.40639 626.41441,-764.66786c17.82857,-11.07044 65.83573,-22.14089 106.78574,-22.14089c62.30716,0 85.42859,15.45249 156.55717,97.21234c46.24287,55.2369 567.63582,716.00403 1160.25023,1469.60145c592.6144,753.59742 1081.87878,1367.89175 1087.2645,1365.70072c5.29286,-2.07571 430.57865,-545.68064 943.05733,-1208.6388l-0.00001,0l-0.00001,0.00002z" id="svg_3" fill="#FFF093"/>
    </g>
   </g>
   <g id="svg_6">
    <g transform="translate(0, 511) scale(0.1, -0.1)" id="svg_5">
     <path d="m1208.31009,4774.1837c-218.86433,-53.04588 -418.1358,-254.15895 -521.39295,-523.77039l-56.92144,-148.06719l0,-3745.73088l0,-3745.73088l56.92144,-148.06719c106.78574,-278.49086 302.52864,-470.72451 537.36439,-525.96141c131.67145,-30.90499 7772.79437,-30.90499 7904.46582,0c234.92862,55.2369 430.67151,247.47055 537.36439,525.96141l56.92144,148.06719l5.38572,3712.63487c3.52857,3655.20694 3.52857,3714.82589 -32.03572,3856.32c-44.47858,183.46955 -140.58574,340.30084 -279.4072,457.46304c-209.95004,174.59013 117.46431,161.32866 -4244.03654,159.13763c-2151.31471,-2.42166 -3920.15076,-11.18576 -3964.62934,-22.25621l-0.00001,0l0,0.00001zm7932.97298,-559.17274c67.60002,-44.16646 137.05717,-143.68514 161.94289,-232.01806c14.20714,-55.2369 19.59286,-722.57711 19.59286,-2408.74412l-1.76429,-2333.67268l-304.29291,386.77364c-167.23575,212.18351 -677.95014,868.45327 -1133.50736,1458.53101c-455.55723,590.07773 -847.04302,1089.5162 -871.92875,1109.35075c-58.68572,50.85485 -156.55717,50.85485 -218.86433,0c-26.65001,-19.94986 -475.1501,-579.00729 -994.6859,-1241.96545c-519.81439,-662.95816 -1026.90734,-1308.27279 -1128.30736,-1434.19909l-181.53575,-227.63601l-601.43583,751.40639c-439.49295,554.67538 -613.87869,757.97947 -653.06442,766.85889c-133.43574,37.59338 -108.55002,64.11632 -1162.01451,-1270.67941c-546.27868,-693.86315 -1000.07162,-1259.60897 -1007.22163,-1259.60897c-8.91429,0 -15.97143,1272.87043 -15.97143,2828.7291c0,3171.22096 -8.91429,2947.967 129.90716,3074.00862l71.22144,64.11632l3922.00791,0c3341.74351,-0.23063 3928.97219,-4.728 3969.9222,-31.25094l0.00001,0.00001zm-1311.51454,-3814.22925c514.33582,-662.95816 1055.22877,-1363.5097 1204.72881,-1558.04969l270.49291,-353.56231l-3.52857,-910.42871c-5.29286,-883.90577 -7.15001,-910.54403 -42.7143,-972.35401c-19.59286,-33.09602 -64.07144,-83.95087 -96.10716,-112.66483l-58.68572,-48.66383l-3922.00791,0c-4276.07226,0 -3964.7222,-8.87942 -4064.35794,125.9263c-74.75001,99.40336 -87.19288,183.46955 -87.19288,570.12787l0,360.2507l1062.37878,1352.43925l1064.14307,1352.43925l592.52155,-742.52697c325.65006,-408.79921 606.82155,-751.40639 626.41441,-764.66786c17.82857,-11.07044 65.83573,-22.14089 106.78574,-22.14089c62.30716,0 85.42859,15.45249 156.55717,97.21234c46.24287,55.2369 567.63582,716.00403 1160.25023,1469.60145c592.6144,753.59742 1081.87878,1367.89175 1087.2645,1365.70072c5.29286,-2.07571 430.57865,-545.68064 943.05733,-1208.6388l-0.00001,0l-0.00001,0.00002z" id="svg_4" fill="#FFF093"/>
    </g>
   </g>
   <g id="svg_9">
    <g transform="translate(0, 511) scale(0.1, -0.1)" id="svg_8">
     <path d="m848.31009,4374.1837c-218.86433,-53.04588 -418.1358,-254.15895 -521.39295,-523.77039l-56.92144,-148.06719l0,-3745.73088l0,-3745.73088l56.92144,-148.06719c106.78574,-278.49086 302.52864,-470.72451 537.36439,-525.96141c131.67145,-30.90499 7772.79437,-30.90499 7904.46582,0c234.92862,55.2369 430.67151,247.47055 537.36439,525.96141l56.92144,148.06719l5.38572,3712.63487c3.52857,3655.20694 3.52857,3714.82589 -32.03572,3856.32c-44.47858,183.46955 -140.58574,340.30084 -279.4072,457.46304c-209.95004,174.59013 117.46431,161.32866 -4244.03654,159.13763c-2151.31471,-2.42166 -3920.15076,-11.18576 -3964.62934,-22.25621l-0.00001,0l0,0.00001zm7932.97298,-559.17274c67.60002,-44.16646 137.05717,-143.68514 161.94289,-232.01806c14.20714,-55.2369 19.59286,-722.57711 19.59286,-2408.74412l-1.76429,-2333.67268l-304.29291,386.77364c-167.23575,212.18351 -677.95014,868.45327 -1133.50736,1458.53101c-455.55723,590.07773 -847.04302,1089.5162 -871.92875,1109.35075c-58.68572,50.85485 -156.55717,50.85485 -218.86433,0c-26.65001,-19.94986 -475.1501,-579.00729 -994.6859,-1241.96545c-519.81439,-662.95816 -1026.90734,-1308.27279 -1128.30736,-1434.19909l-181.53575,-227.63601l-601.43583,751.40639c-439.49295,554.67538 -613.87869,757.97947 -653.06442,766.85889c-133.43574,37.59338 -108.55002,64.11632 -1162.01451,-1270.67941c-546.27868,-693.86315 -1000.07162,-1259.60897 -1007.22163,-1259.60897c-8.91429,0 -15.97143,1272.87043 -15.97143,2828.7291c0,3171.22096 -8.91429,2947.967 129.90716,3074.00862l71.22144,64.11632l3922.00791,0c3341.74351,-0.23063 3928.97219,-4.728 3969.9222,-31.25094l0.00001,0.00001zm-1311.51454,-3814.22925c514.33582,-662.95816 1055.22877,-1363.5097 1204.72881,-1558.04969l270.49291,-353.56231l-3.52857,-910.42871c-5.29286,-883.90577 -7.15001,-910.54403 -42.7143,-972.35401c-19.59286,-33.09602 -64.07144,-83.95087 -96.10716,-112.66483l-58.68572,-48.66383l-3922.00791,0c-4276.07226,0 -3964.7222,-8.87942 -4064.35794,125.9263c-74.75001,99.40336 -87.19288,183.46955 -87.19288,570.12787l0,360.2507l1062.37878,1352.43925l1064.14307,1352.43925l592.52155,-742.52697c325.65006,-408.79921 606.82155,-751.40639 626.41441,-764.66786c17.82857,-11.07044 65.83573,-22.14089 106.78574,-22.14089c62.30716,0 85.42859,15.45249 156.55717,97.21234c46.24287,55.2369 567.63582,716.00403 1160.25023,1469.60145c592.6144,753.59742 1081.87878,1367.89175 1087.2645,1365.70072c5.29286,-2.07571 430.57865,-545.68064 943.05733,-1208.6388l-0.00001,0l-0.00001,0.00002z" id="svg_7" fill="#FFF093"/>
    </g>
   </g>
   <g id="svg_12">
    <g transform="translate(0, 511) scale(0.1, -0.1)" id="svg_11">
     <path d="m848.31009,4774.1837c-218.86433,-53.04588 -418.1358,-254.15895 -521.39295,-523.77039l-56.92144,-148.06719l0,-3745.73088l0,-3745.73088l56.92144,-148.06719c106.78574,-278.49086 302.52864,-470.72451 537.36439,-525.96141c131.67145,-30.90499 7772.79437,-30.90499 7904.46582,0c234.92862,55.2369 430.67151,247.47055 537.36439,525.96141l56.92144,148.06719l5.38572,3712.63487c3.52857,3655.20694 3.52857,3714.82589 -32.03572,3856.32c-44.47858,183.46955 -140.58574,340.30084 -279.4072,457.46304c-209.95004,174.59013 117.46431,161.32866 -4244.03654,159.13763c-2151.31471,-2.42166 -3920.15076,-11.18576 -3964.62934,-22.25621l-0.00001,0l0,0.00001zm7932.97298,-559.17274c67.60002,-44.16646 137.05717,-143.68514 161.94289,-232.01806c14.20714,-55.2369 19.59286,-722.57711 19.59286,-2408.74412l-1.76429,-2333.67268l-304.29291,386.77364c-167.23575,212.18351 -677.95014,868.45327 -1133.50736,1458.53101c-455.55723,590.07773 -847.04302,1089.5162 -871.92875,1109.35075c-58.68572,50.85485 -156.55717,50.85485 -218.86433,0c-26.65001,-19.94986 -475.1501,-579.00729 -994.6859,-1241.96545c-519.81439,-662.95816 -1026.90734,-1308.27279 -1128.30736,-1434.19909l-181.53575,-227.63601l-601.43583,751.40639c-439.49295,554.67538 -613.87869,757.97947 -653.06442,766.85889c-133.43574,37.59338 -108.55002,64.11632 -1162.01451,-1270.67941c-546.27868,-693.86315 -1000.07162,-1259.60897 -1007.22163,-1259.60897c-8.91429,0 -15.97143,1272.87043 -15.97143,2828.7291c0,3171.22096 -8.91429,2947.967 129.90716,3074.00862l71.22144,64.11632l3922.00791,0c3341.74351,-0.23063 3928.97219,-4.728 3969.9222,-31.25094l0.00001,0.00001zm-1311.51454,-3814.22925c514.33582,-662.95816 1055.22877,-1363.5097 1204.72881,-1558.04969l270.49291,-353.56231l-3.52857,-910.42871c-5.29286,-883.90577 -7.15001,-910.54403 -42.7143,-972.35401c-19.59286,-33.09602 -64.07144,-83.95087 -96.10716,-112.66483l-58.68572,-48.66383l-3922.00791,0c-4276.07226,0 -3964.7222,-8.87942 -4064.35794,125.9263c-74.75001,99.40336 -87.19288,183.46955 -87.19288,570.12787l0,360.2507l1062.37878,1352.43925l1064.14307,1352.43925l592.52155,-742.52697c325.65006,-408.79921 606.82155,-751.40639 626.41441,-764.66786c17.82857,-11.07044 65.83573,-22.14089 106.78574,-22.14089c62.30716,0 85.42859,15.45249 156.55717,97.21234c46.24287,55.2369 567.63582,716.00403 1160.25023,1469.60145c592.6144,753.59742 1081.87878,1367.89175 1087.2645,1365.70072c5.29286,-2.07571 430.57865,-545.68064 943.05733,-1208.6388l-0.00001,0l-0.00001,0.00002z" id="svg_10" fill="#FFF093"/>
    </g>
   </g>
  </g>
 </g>
</svg>