<svg width="512" height="512" xmlns="http://www.w3.org/2000/svg">
 <g>
  <title>background</title>
  <rect x="-1" y="-1" width="514" height="514" id="canvas_background" fill="none"/>
 </g>

 <g>
  <title>Layer 1</title>
  <path d="m127.08074,371.90381c10.20563,12.01975 16.55571,27.21487 16.55571,44.22412c0,37.64716 -30.38981,68.03697 -68.03697,68.03697s-68.03697,-30.38981 -68.03697,-68.03697s30.38981,-68.03697 68.03697,-68.03697c4.08221,0 8.16442,0 12.01975,1.13393l69.62443,-121.55944l-39.4615,-22.45226l92.7571,-25.40054l25.40054,92.7571l-39.4615,-22.45226l-69.39778,121.7861m311.38251,-23.81285c-29.48274,0 -54.42953,19.05024 -63.95476,45.35805l-140.15615,0l0,-45.35805l-68.03697,68.03697l68.03697,68.03697l0,-45.35805l140.15615,0c9.52523,26.3076 34.47202,45.35805 63.95476,45.35805c37.64716,0 68.03697,-30.38981 68.03697,-68.03697s-30.38981,-68.03697 -68.03697,-68.03697m-181.43177,-181.43177c4.08221,0 8.16442,0 12.01975,-1.13393l69.62443,121.55944l-39.4615,22.45226l92.7571,25.40054l25.40054,-92.7571l-39.4615,22.45226l-69.39778,-121.7861c10.20563,-12.01975 16.55571,-27.21487 16.55571,-44.22412c0,-37.64716 -30.38981,-68.03697 -68.03697,-68.03697s-68.03697,30.38981 -68.03697,68.03697s30.38981,68.03697 68.03697,68.03697l0.00022,-0.00022z" id="svg_1" fill="#D3BEE7"/>
 </g>
</svg>