<svg width="356.926" height="356.926" xmlns="http://www.w3.org/2000/svg">

 <g>
  <title>background</title>
  <rect fill="none" id="canvas_background" height="602" width="802" y="-1" x="-1"/>
 </g>
 <g>
  <title>Layer 1</title>
  <g id="svg_1">
   <g id="svg_2">
    <path fill="#B9FFCE" id="svg_3" d="m211.89,213.669c0,-10.475 -8.521,-18.997 -18.996,-18.997c-0.401,0 -0.799,0.017 -1.193,0.041l0,2.406c0.396,-0.028 0.79,-0.061 1.193,-0.061c9.158,0 16.608,7.452 16.608,16.611s-7.45,16.61 -16.608,16.61c-0.269,0 -0.53,-0.027 -0.795,-0.041l0,0.897l0,1.509l0,4.723l-5.899,0l0,3.182l13.388,0l0,-3.182l-5.104,0l0,-4.774c9.734,-0.812 17.406,-8.986 17.406,-18.924z"/>
    <g id="svg_4">
     <polygon fill="#B9FFCE" id="svg_5" points="260.072,79.408 260.398,82.045 256.447,82.882 255.913,88.517 260.677,88.517 266.998,87.913 270.251,84.021      266.788,82.678 264.883,80.488 262.024,75.858 260.677,69.329 255.286,70.409 253.799,72.721 253.799,75.312 256.378,77.084         "/>
     <polygon fill="#B9FFCE" id="svg_6" points="255.495,81.569 255.773,78.037 252.637,76.683 248.233,77.706 244.945,82.94 244.945,86.344 248.768,86.344         "/>
     <path fill="#B9FFCE" id="svg_7" d="m164.852,96.598l-0.976,2.498l-4.7,0l0,2.428l1.121,0c0,0 0.07,0.511 0.168,1.191l2.876,-0.238l1.783,-1.121l0.465,-2.248l2.335,-0.204l0.912,-1.888l-2.138,-0.442l-1.846,0.024z"/>
     <polygon fill="#B9FFCE" id="svg_8" points="152.739,101.001 152.565,103.366 155.976,103.081 156.324,100.705 154.279,99.096    "/>
     <path fill="#B9FFCE" id="svg_9" d="m356.868,176.633c-0.047,-5.223 -0.313,-10.398 -0.802,-15.505c-1.662,-17.01 -5.717,-33.311 -11.828,-48.589c-0.441,-1.127 -0.859,-2.283 -1.336,-3.41c-8.121,-19.183 -19.531,-36.646 -33.474,-51.721c-0.906,-0.987 -1.835,-1.952 -2.765,-2.916c-2.649,-2.736 -5.333,-5.415 -8.156,-7.971c-31.719,-28.89 -73.865,-46.521 -120.044,-46.521c-46.567,0 -89.016,17.957 -120.828,47.271c-7.413,6.832 -14.221,14.303 -20.408,22.285c-23.308,30.161 -37.227,67.934 -37.227,108.907c0,98.398 80.059,178.463 178.463,178.463c69.225,0 129.316,-39.643 158.897,-97.399c6.32,-12.327 11.247,-25.491 14.569,-39.294c0.837,-3.486 1.58,-7.018 2.208,-10.585c1.801,-10.137 2.788,-20.56 2.788,-31.196c-0.023,-0.593 -0.057,-1.203 -0.057,-1.819zm-33.59,-71.327l1.022,-1.162c1.359,2.637 2.649,5.304 3.846,8.028l-1.708,-0.07l-3.172,0.436l0,-7.233l0.012,0l0,0.001zm-25.794,-31.15l0.023,-7.971c2.812,2.975 5.508,6.036 8.087,9.214l-3.207,4.781l-11.247,-0.111l-0.696,-2.341l7.04,-3.572zm-215.27,-19.792l0,-0.302l3.567,0l0.325,-1.226l5.838,0l0,2.55l-1.691,2.236l-8.052,0l0,-3.259l0.013,0l0,0.001zm5.711,7.959c0,0 3.578,-0.61 3.892,-0.61c0.296,0 0,3.573 0,3.573l-8.081,0.511l-1.534,-1.847l5.723,-1.627zm246.717,70.833l-13.06,0l-7.971,-5.92l-8.365,0.808l0,5.112l-2.648,0l-2.848,-2.033l-14.512,-3.671l0,-9.4l-18.38,1.423l-5.705,3.062l-7.285,0l-3.59,-0.36l-8.854,4.926l0,9.254l-18.097,13.065l1.5,5.583l3.677,0l-0.964,5.315l-2.58,0.953l-0.133,13.884l15.633,17.823l6.819,0l0.407,-1.081l12.246,0l3.531,-3.265l6.948,0l3.812,3.811l10.328,1.069l-1.359,13.757l11.503,20.28l-6.064,11.572l0.406,5.438l4.775,4.752l0,13.095l6.251,8.412l0,10.897l5.391,0c-30.046,36.913 -75.823,60.534 -127.026,60.534c-90.312,0 -163.783,-73.454 -163.783,-163.777c0,-22.732 4.665,-44.401 13.077,-64.089l0,-5.106l5.855,-7.11c2.033,-3.846 4.212,-7.582 6.542,-11.235l0.25,2.974l-6.791,8.261c-2.108,3.985 -4.084,8.052 -5.855,12.217l0,9.312l6.791,3.276l0,12.955l6.535,11.136l5.316,0.808l0.68,-3.817l-6.245,-9.661l-1.237,-9.388l3.677,0l1.557,9.673l9.051,13.193l-2.33,4.27l5.734,8.795l14.291,3.532l0,-2.306l5.711,0.808l-0.534,4.078l4.484,0.825l6.948,1.888l9.8,11.171l12.507,0.941l1.237,10.207l-8.58,5.984l-0.39,9.115l-1.237,5.588l12.386,15.5l0.947,5.32c0,0 4.49,1.209 5.048,1.209c0.535,0 10.062,7.227 10.062,7.227l0,28.024l3.393,0.964l-2.294,12.92l5.71,7.634l-1.068,12.827l7.563,13.269l9.696,8.47l9.731,0.197l0.952,-3.148l-7.163,-6.029l0.418,-2.986l1.272,-3.684l0.273,-3.741l-4.839,-0.14l-2.44,-3.066l4.021,-3.881l0.546,-2.916l-4.496,-1.29l0.261,-2.719l6.402,-0.976l9.73,-4.672l3.265,-6.006l10.196,-13.06l-2.312,-10.213l3.131,-5.438l9.399,0.278l6.327,-5.02l2.051,-19.693l7.04,-8.877l1.237,-5.704l-6.39,-2.045l-4.224,-6.942l-14.419,-0.145l-11.444,-4.351l-0.534,-8.162l-3.811,-6.675l-10.335,-0.145l-5.995,-9.382l-5.298,-2.585l-0.273,2.858l-9.672,0.569l-3.532,-4.926l-10.079,-2.045l-8.302,9.603l-13.065,-2.23l-0.953,-14.727l-9.527,-1.632l3.805,-7.221l-1.092,-4.148l-12.531,8.371l-7.877,-0.964l-2.817,-6.158l1.737,-6.355l4.339,-8.005l9.998,-5.072l19.322,0l-0.064,5.891l6.948,3.235l-0.558,-10.062l5.007,-5.037l10.103,-6.64l0.703,-4.659l10.068,-10.486l10.707,-5.937l-0.941,-0.773l7.256,-6.826l2.655,0.703l1.214,1.522l2.76,-3.062l0.68,-0.296l-3.021,-0.43l-3.084,-0.987l0,-2.963l1.632,-1.33l3.579,0l1.655,0.726l1.418,2.858l1.737,-0.267l0,-0.244l0.5,0.163l5.02,-0.772l0.714,-2.463l2.852,0.726l0,2.667l-2.666,1.818l0.018,0l0.377,2.928l9.115,2.794c0,0 0,0.035 0.023,0.11l2.079,-0.18l0.146,-3.939l-7.209,-3.282l-0.396,-1.894l5.972,-2.033l0.273,-5.722l-6.245,-3.805l-0.412,-9.667l-8.581,4.218l-3.143,0l0.837,-7.355l-11.688,-2.748l-4.816,3.654l0,11.119l-8.673,2.754l-3.486,7.244l-3.758,0.604l0,-9.277l-8.162,-1.133l-4.096,-2.667l-1.639,-6.007l14.611,-8.54l7.14,-2.179l0.72,4.804l3.991,-0.215l0.308,-2.411l4.166,-0.599l0.07,-0.842l-1.784,-0.738l-0.407,-2.544l5.118,-0.43l3.091,-3.213l0.18,-0.238l0.035,0.012l0.941,-0.976l10.753,-1.354l4.746,4.032l-12.467,6.64l15.871,3.747l2.045,-5.31l6.948,0l2.44,-4.625l-4.903,-1.226l0,-5.856l-15.359,-6.803l-10.62,1.226l-6.001,3.125l0.407,7.628l-6.257,-0.953l-0.964,-4.212l6.007,-5.449l-10.898,-0.535l-3.125,0.953l-1.359,3.677l4.084,0.686l-0.813,4.084l-6.936,0.406l-1.092,2.725l-10.075,0.277c0,0 -0.273,-5.711 -0.703,-5.711c-0.389,0 7.901,-0.145 7.901,-0.145l5.995,-5.85l-3.271,-1.632l-4.339,4.223l-7.222,-0.406l-4.403,-6.019l-9.254,0l-9.661,7.21l8.848,0l0.796,2.597l-2.307,2.172l9.807,0.279l1.487,3.532l-11.032,-0.407l-0.546,-2.725l-6.925,-1.499l-3.689,-2.033l-8.255,0.069c27.043,-19.699 60.284,-31.358 96.226,-31.358c41.403,0 79.263,15.476 108.124,40.915l-1.929,3.474l-7.564,2.962l-3.194,3.462l0.743,4.02l3.893,0.546l2.358,5.867l6.704,-2.713l1.127,7.86l-2.045,0l-5.519,-0.819l-6.111,1.022l-5.926,8.377l-8.458,1.319l-1.221,7.25l3.579,0.842l-1.046,4.665l-8.412,-1.69l-7.703,1.69l-1.639,4.293l1.325,9.01l4.531,2.115l7.61,-0.046l5.123,-0.465l1.58,-4.078l8.018,-10.422l5.264,1.081l5.193,-4.7l0.976,3.678l12.78,8.621l-1.557,2.108l-5.763,-0.308l2.23,3.137l3.556,0.79l4.159,-1.737l-0.093,-5.002l1.859,-0.923l-1.487,-1.575l-8.528,-4.758l-2.254,-6.314l7.099,0l2.243,2.248l6.134,5.257l0.244,6.367l6.332,6.733l2.348,-9.231l4.392,-2.394l0.802,7.552l4.287,4.7l8.54,-0.139c1.661,4.247 3.148,8.563 4.427,12.978l-0.929,0.834zm-237.318,-52.064l4.27,-2.044l3.881,0.929l-1.324,5.211l-4.183,1.319l-2.644,-5.415zm22.749,12.258l0,3.37l-9.783,0l-3.689,-1.028l0.918,-2.341l4.7,-1.94l6.437,0l0,1.94l1.417,0l0,-0.001zm4.509,4.7l0,3.259l-2.463,1.58l-3.044,0.575c0,0 0,-4.903 0,-5.415l5.507,0l0,0.001zm-2.76,-1.33l0,-3.893l3.363,3.067l-3.363,0.826zm1.533,7.848l0,3.178l-2.347,2.347l-5.211,0l0.813,-3.573l2.463,-0.215l0.5,-1.226l3.782,-0.511zm-12.965,-6.518l5.408,0l-6.948,9.696l-2.852,-1.534l0.616,-4.084l3.776,-4.078zm22.139,5.414l0,3.166l-5.211,0l-1.417,-2.062l0,-2.951l0.406,0l6.222,1.847zm-4.781,-4.368l1.475,-1.557l2.498,1.557l-1.999,1.656l-1.974,-1.656zm209.543,42.332l0.511,-0.61c0.232,0.93 0.441,1.859 0.662,2.789l-1.173,-2.179z"/>
     <path fill="#B9FFCE" id="svg_10" d="m27.734,109.268l0,5.106c1.771,-4.177 3.747,-8.231 5.855,-12.223l-5.855,7.117z"/>
    </g>
   </g>
  </g>
  <g id="svg_11"/>
  <g id="svg_12"/>
  <g id="svg_13"/>
  <g id="svg_14"/>
  <g id="svg_15"/>
  <g id="svg_16"/>
  <g id="svg_17"/>
  <g id="svg_18"/>
  <g id="svg_19"/>
  <g id="svg_20"/>
  <g id="svg_21"/>
  <g id="svg_22"/>
  <g id="svg_23"/>
  <g id="svg_24"/>
  <g id="svg_25"/>
 </g>
</svg>