<svg width="548.291" height="548.291" xmlns="http://www.w3.org/2000/svg">
 <g>
  <title>background</title>
  <rect x="-1" y="-1" width="550.291" height="550.291" id="canvas_background" fill="none"/>
 </g>

 <g>
  <title>Layer 1</title>
  <g id="svg_1">
   <g id="svg_2">
    <path d="m250.17391,408.50075c-21.5008,0 -34.02214,16.11047 -34.02214,37.64321c0,21.70312 12.93733,36.99725 34.22419,36.99725c21.5008,0 33.81058,-16.11047 33.81058,-37.64882c0.00594,-19.89351 -12.09346,-36.99163 -34.01263,-36.99163z" id="svg_3" fill="#FFEBFF"/>
    <path d="m507.90901,141.00276c-0.03684,-2.35352 -0.9853,-4.67802 -3.03792,-6.51571l-125.64956,-113.04477c-0.02496,-0.03183 -0.06299,-0.04119 -0.09984,-0.07021c-0.74878,-0.65906 -1.60929,-1.20204 -2.53398,-1.68135c-0.27337,-0.13949 -0.54911,-0.26493 -0.83555,-0.39225c-0.81178,-0.3417 -1.64851,-0.62442 -2.52091,-0.83131c-0.23771,-0.0543 -0.44808,-0.13013 -0.68579,-0.17881c-0.96035,-0.18255 -1.93495,-0.28834 -2.93214,-0.28834l-308.80219,0c-14.08784,0 -25.55613,9.03306 -25.55613,20.12943l0,473.03308c0,11.10105 11.46828,20.12849 25.55613,20.12849l421.66656,0c14.09973,0 25.55731,-9.02744 25.55731,-20.12849l0,-369.03167c0.00119,-0.37821 -0.07607,-0.74893 -0.12599,-1.12808zm-329.76458,360.21206l-87.86924,0l0,-110.79703l31.93268,0l0,89.75953l55.93656,0l0,21.03751zm70.57113,1.81335c-41.7465,0 -66.16281,-24.82242 -66.16281,-56.38149c0,-33.21608 26.92177,-58.0385 68.45552,-58.0385c43.20961,0 66.79393,25.48148 66.79393,56.06319c0,36.32602 -27.96412,58.3568 -69.08664,58.3568zm207.49644,-6.90422c-9.82096,2.62875 -28.38724,6.24609 -46.96898,6.24609c-25.66785,0 -44.24839,-5.09555 -57.18691,-14.95898c-12.94208,-9.53765 -20.03414,-24.00609 -19.82852,-40.28132c0.21037,-36.82406 34.22063,-57.87093 80.35881,-57.87093c18.15624,0 32.13948,2.80101 39.02592,5.42414l-6.67607,20.06202c-7.71604,-2.63437 -17.31831,-4.76789 -32.76704,-4.76789c-26.51053,0 -46.54467,11.83968 -46.54467,35.83547c0,22.84992 18.16337,36.33538 44.25434,36.33538c7.30005,0 13.14057,-0.65906 15.6484,-1.6411l0,-23.18132l-21.70048,0l0,-19.56305l52.384,0l0,58.36148l0.00119,0zm-395.40087,-136.34779l0,-321.64673l296.02294,0l0,102.98848c0,5.55614 5.71691,10.06471 12.77925,10.06471l112.86556,0l0.01307,208.5926l-421.68082,0l0,0.00094z" id="svg_4" fill="#FFEBFF"/>
   </g>
   <g id="svg_5">
    <path d="m368.00759,103.54304l-18.10037,0l0,24.32625c0,4.39904 -4.52836,7.96583 -10.11215,7.96583c-5.59211,0 -10.11453,-3.56773 -10.11453,-7.96583l0,-24.32625l-31.94575,0l0,24.32625c0,4.39904 -4.52836,7.96583 -10.11215,7.96583c-5.58973,0 -10.11453,-3.56773 -10.11453,-7.96583l0,-24.32625l-39.40626,0l0,24.32625c0,4.39904 -4.52955,7.96583 -10.11453,7.96583c-5.58973,0 -10.11334,-3.56773 -10.11334,-7.96583l0,-24.32625l-31.94456,0l0,24.32625c0,4.39904 -4.52955,7.96583 -10.11453,7.96583c-5.58973,0 -10.11334,-3.56773 -10.11334,-7.96583l0,-24.32625l-8.51594,0c-10.58519,0 -19.1665,6.75724 -19.1665,15.09754l0,196.25862c0,8.33842 8.58249,15.0966 19.1665,15.0966l210.83269,0c10.58876,0 19.16769,-6.75818 19.16769,-15.0966l0,-196.25862c-0.0107,-8.33936 -8.58963,-15.09754 -19.17839,-15.09754zm3.20194,211.36084l-221.48444,0l0,-150.96788l221.48444,0l0,150.96788z" id="svg_6" fill="#FFEBFF"/>
    <path d="m185.92465,101.02756c0,-4.3981 -4.52955,-7.96583 -10.11453,-7.96583c-5.58973,0 -10.11334,3.56773 -10.11334,7.96583l0,2.51641l20.23381,0l0,-2.51641l-0.00594,0z" id="svg_7" fill="#FFEBFF"/>
    <path d="m238.10303,101.02756c0,-4.3981 -4.52955,-7.96583 -10.11453,-7.96583c-5.58973,0 -10.11334,3.56773 -10.11334,7.96583l0,2.51641l20.23381,0l0,-2.51641l-0.00594,0z" id="svg_8" fill="#FFEBFF"/>
    <path d="m297.73003,101.02756c0,-4.3981 -4.52955,-7.96583 -10.11215,-7.96583c-5.59211,0 -10.11572,3.56773 -10.11572,7.96583l0,2.51641l20.23263,0l0,-2.51641l-0.00475,0z" id="svg_9" fill="#FFEBFF"/>
    <path d="m349.9084,101.02756c0,-4.3981 -4.52836,-7.96583 -10.11215,-7.96583c-5.59211,0 -10.11453,3.56773 -10.11453,7.96583l0,2.51641l20.23263,0l0,-2.51641l-0.00594,0z" id="svg_10" fill="#FFEBFF"/>
    <path d="m175.81131,192.87099l163.98494,0c1.76499,0 3.19481,-1.12808 3.19481,-2.51641s-1.42863,-2.51641 -3.19481,-2.51641l-163.98494,0c-1.76261,0 -3.19481,1.12808 -3.19481,2.51641s1.4322,2.51641 3.19481,2.51641z" id="svg_11" fill="#FFEBFF"/>
    <path d="m175.81131,222.22446l163.98494,0c1.76499,0 3.19481,-1.12808 3.19481,-2.51641s-1.42863,-2.51641 -3.19481,-2.51641l-163.98494,0c-1.76261,0 -3.19481,1.12808 -3.19481,2.51641s1.4322,2.51641 3.19481,2.51641z" id="svg_12" fill="#FFEBFF"/>
    <path d="m175.81131,256.61449l163.98494,0c1.76499,0 3.19481,-1.12714 3.19481,-2.51641s-1.42863,-2.51641 -3.19481,-2.51641l-163.98494,0c-1.76261,0 -3.19481,1.12808 -3.19481,2.51641s1.4322,2.51641 3.19481,2.51641z" id="svg_13" fill="#FFEBFF"/>
    <path d="m175.81131,285.96889l163.98494,0c1.76499,0 3.19481,-1.13089 3.19481,-2.51641s-1.42863,-2.51641 -3.19481,-2.51641l-163.98494,0c-1.76261,0 -3.19481,1.12995 -3.19481,2.51641s1.4322,2.51641 3.19481,2.51641z" id="svg_14" fill="#FFEBFF"/>
   </g>
  </g>
  <g id="svg_15"/>
  <g id="svg_16"/>
  <g id="svg_17"/>
  <g id="svg_18"/>
  <g id="svg_19"/>
  <g id="svg_20"/>
  <g id="svg_21"/>
  <g id="svg_22"/>
  <g id="svg_23"/>
  <g id="svg_24"/>
  <g id="svg_25"/>
  <g id="svg_26"/>
  <g id="svg_27"/>
  <g id="svg_28"/>
  <g id="svg_29"/>
 </g>
</svg>