<svg width="999.9999999999999" height="999.9999999999999" xmlns="http://www.w3.org/2000/svg">
 <metadata>Svg Vector Icons : http://www.onlinewebfonts.com/icon</metadata>

 <g>
  <title>background</title>
  <rect fill="none" id="canvas_background" height="602" width="802" y="-1" x="-1"/>
 </g>
 <g>
  <title>Layer 1</title>
  <g id="svg_1">
   <path fill="#ffffff" id="svg_2" d="m733.4,152.9c62.7,0 113.6,52.7 113.6,117.5l0,126.7c0,2.3 0,5.1 0,7.8l-694.1,123.7c0,-1.5 0,-3 0,-4.3l3.4,-253.9c0,-64.8 51,-117.5 113.7,-117.5l463.4,0m0,-40.8l-463.5,0c-85.3,0 -154.5,70.9 -154.5,158.3l-3.4,253.4c0,35 0.1,47.5 34.3,47.5l710.5,-126.7c30.7,-6.1 31,-12.5 31,-47.5l0,-126.7c0.1,-87.4 -69.1,-158.3 -154.4,-158.3l0,0z"/>
   <path fill="#ffffff" id="svg_3" d="m459,601.3c0,1.9 -0.1,3.6 -0.1,4.8c-0.1,4.8 -0.3,10.2 0.3,15.8l0,218.8l-0.6,6.3l0,0c-1.1,0 -2.2,0 -3.4,0l-234.5,0c-16.4,0 -67.8,-40.2 -67.8,-96.9l0,-52.3l0,-5.2c0,-8.6 0,-25.1 0.9,-37.2l305.2,-54.1m25.5,-46l-356.9,63.4c-16.6,0.5 -15.5,48.8 -15.5,79.2l0,52.3c0,76.1 66.9,137.8 108.6,137.8l234.5,0c44,0 41.1,-6.9 44.8,-45.4l0,-224c-2.7,-2.1 7,-62.9 -15.5,-63.3l0,0z"/>
   <path fill="#ffffff" id="svg_4" d="m847.1,535.2l0,215c0,53.4 -53.4,96.9 -118.7,96.9l-122.7,-1c-4.9,0 -9.6,0.2 -14.2,0.4c-1,0 -2,0.1 -2.9,0.1c-0.6,-4.5 -1.2,-11.2 -1.2,-21l0,-245.6c0.5,-0.3 1.1,-0.7 1.6,-1l258.1,-43.8m13.5,-43.3c-1.2,0 -2.5,0.1 -3.7,0.2l-279.3,47.5c-13,4.5 -31.1,17.7 -31.1,31.7l0,254.4c0,55.2 14.9,62 36.3,62c7,0 14.7,-0.7 22.8,-0.7l122.4,1c88,0 159.9,-61.7 159.9,-137.7l0,-220.4c1.4,-23 -9.1,-38 -27.3,-38l0,0z"/>
   <path fill="#ffffff" id="svg_5" d="m785.8,71.3c78.8,0 142.9,64.1 142.9,142.9l0,571.7c0,78.8 -64.1,142.9 -142.9,142.9l-571.6,0c-78.8,0 -142.9,-64.1 -142.9,-142.9l0,-571.7c0,-78.8 64.1,-142.9 142.9,-142.9l571.6,0m0,-61.3l-571.6,0c-112.8,0 -204.2,91.4 -204.2,204.2l0,571.7c0,112.7 91.4,204.1 204.2,204.1l571.7,0c112.7,0 204.1,-91.4 204.1,-204.2l0,-571.6c0,-112.8 -91.4,-204.2 -204.2,-204.2l0,0z"/>
  </g>
 </g>
</svg>