{
  "accessors": [
    {
      "bufferView": 1,
      "componentType": 5126,
      "count": 160,
      "max": [
        6.1850099563598633,
        0.78152000904083252,
        6.9242701530456543
      ],
      "min": [
        -6.2533397674560547,
        -0.78152000904083252,
        1.4697400331497192
      ],
      "type": "VEC3"
    },
    {
      "bufferView": 1,
      "byteOffset": 1920,
      "componentType": 5126,
      "count": 160,
      "max": [
        1,
        1,
        1
      ],
      "min": [
        -1,
        -1,
        -1
      ],
      "type": "VEC3"
    },
    {
      "bufferView": 0,
      "componentType": 5125,
      "count": 288,
      "max": [
        159
      ],
      "min": [
        0
      ],
      "type": "SCALAR"
    },
    {
      "bufferView": 1,
      "byteOffset": 3840,
      "componentType": 5126,
      "count": 308,
      "max": [
        8.4929895401000977,
        1.3194999694824219,
        7.7728700637817383
      ],
      "min": [
        -8.5613203048706055,
        -1.3194999694824219,
        -0.10993000119924545
      ],
      "type": "VEC3"
    },
    {
      "bufferView": 1,
      "byteOffset": 7536,
      "componentType": 5126,
      "count": 308,
      "max": [
        1,
        1,
        0.99994295835494995
      ],
      "min": [
        -1,
        -1,
        -1
      ],
      "type": "VEC3"
    },
    {
      "bufferView": 0,
      "byteOffset": 1152,
      "componentType": 5125,
      "count": 504,
      "max": [
        307
      ],
      "min": [
        0
      ],
      "type": "SCALAR"
    },
    {
      "bufferView": 1,
      "byteOffset": 11232,
      "componentType": 5126,
      "count": 72,
      "max": [
        4.8279600143432617,
        1,
        1.4697400331497192
      ],
      "min": [
        -4.8279600143432617,
        -1,
        1.345289945602417
      ],
      "type": "VEC3"
    },
    {
      "bufferView": 1,
      "byteOffset": 12096,
      "componentType": 5126,
      "count": 72,
      "max": [
        0.78806793689727783,
        0.68248355388641357,
        1
      ],
      "min": [
        -0.78806793689727783,
        -0.68248355388641357,
        0.61558836698532104
      ],
      "type": "VEC3"
    },
    {
      "bufferView": 0,
      "byteOffset": 3168,
      "componentType": 5125,
      "count": 144,
      "max": [
        71
      ],
      "min": [
        0
      ],
      "type": "SCALAR"
    },
    {
      "bufferView": 1,
      "byteOffset": 12960,
      "componentType": 5126,
      "count": 816,
      "max": [
        10.652910232543945,
        4.9043498039245605,
        11.01294994354248
      ],
      "min": [
        -3.4274098873138428,
        -4.8776202201843262,
        -0.88107001781463623
      ],
      "type": "VEC3"
    },
    {
      "bufferView": 1,
      "byteOffset": 22752,
      "componentType": 5126,
      "count": 816,
      "max": [
        1,
        1,
        1
      ],
      "min": [
        -1,
        -1,
        -1
      ],
      "type": "VEC3"
    },
    {
      "bufferView": 0,
      "byteOffset": 3744,
      "componentType": 5125,
      "count": 1290,
      "max": [
        815
      ],
      "min": [
        0
      ],
      "type": "SCALAR"
    },
    {
      "bufferView": 1,
      "byteOffset": 32544,
      "componentType": 5126,
      "count": 552,
      "max": [
        11.394929885864258,
        4.4051399230957031,
        11.941140174865723
      ],
      "min": [
        -4.2854199409484863,
        -4.4404001235961914,
        -1.0011700391769409
      ],
      "type": "VEC3"
    },
    {
      "bufferView": 1,
      "byteOffset": 39168,
      "componentType": 5126,
      "count": 552,
      "max": [
        1,
        1,
        1
      ],
      "min": [
        -1,
        -1,
        -1
      ],
      "type": "VEC3"
    },
    {
      "bufferView": 0,
      "byteOffset": 8904,
      "componentType": 5125,
      "count": 948,
      "max": [
        551
      ],
      "min": [
        0
      ],
      "type": "SCALAR"
    },
    {
      "bufferView": 1,
      "byteOffset": 45792,
      "componentType": 5126,
      "count": 820,
      "max": [
        10.377969741821289,
        4.7659401893615723,
        10.627860069274902
      ],
      "min": [
        -3.1906900405883789,
        -4.7674798965454102,
        0.90016001462936401
      ],
      "type": "VEC3"
    },
    {
      "bufferView": 1,
      "byteOffset": 55632,
      "componentType": 5126,
      "count": 820,
      "max": [
        1,
        1,
        0.98282516002655029
      ],
      "min": [
        -1,
        -1,
        -1
      ],
      "type": "VEC3"
    },
    {
      "bufferView": 0,
      "byteOffset": 12696,
      "componentType": 5125,
      "count": 1278,
      "max": [
        819
      ],
      "min": [
        0
      ],
      "type": "SCALAR"
    }
  ],
  "asset": {
    "extras": {
      "author": "Larolei Low Poly (https://sketchfab.com/strix567)",
      "license": "CC-BY-NC-4.0 (http://creativecommons.org/licenses/by-nc/4.0/)",
      "source": "https://sketchfab.com/3d-models/japanese-gates-torii-low-poly-9d95c8e54c2b436f85a21b0f2288afe7",
      "title": "Japanese Gates \"Torii\" (Low Poly)"
    },
    "generator": "Sketchfab-6.63.1",
    "version": "2.0"
  },
  "bufferViews": [
    {
      "buffer": 0,
      "byteLength": 17808,
      "byteOffset": 0,
      "name": "floatBufferViews",
      "target": 34963
    },
    {
      "buffer": 0,
      "byteLength": 65472,
      "byteOffset": 17808,
      "byteStride": 12,
      "name": "floatBufferViews",
      "target": 34962
    }
  ],
  "buffers": [
    {
      "byteLength": 83280,
      "uri": "scene.bin"
    }
  ],
  "materials": [
    {
      "doubleSided": true,
      "emissiveFactor": [
        0,
        0,
        0
      ],
      "name": "japanbuilding13",
      "pbrMetallicRoughness": {
        "baseColorFactor": [
          0.16263887286186218,
          0.029313312843441981,
          0.027713479474186915,
          1
        ],
        "metallicFactor": 0.099275914634146339,
        "roughnessFactor": 0.59999999999999998
      }
    },
    {
      "doubleSided": true,
      "emissiveFactor": [
        0,
        0,
        0
      ],
      "name": "hause_japan16",
      "pbrMetallicRoughness": {
        "baseColorFactor": [
          0.035651646554470062,
          0.04442944750189784,
          0.052217781543731683,
          1
        ],
        "metallicFactor": 0.77000762195121952,
        "roughnessFactor": 0.59999999999999998
      }
    },
    {
      "doubleSided": true,
      "emissiveFactor": [
        0,
        0,
        0
      ],
      "name": "japanbuilding12",
      "pbrMetallicRoughness": {
        "baseColorFactor": [
          0.30319705605506903,
          0.05730309337377551,
          0.05414932221174238,
          1
        ],
        "metallicFactor": 0.093178353658536592,
        "roughnessFactor": 0.59999999999999998
      }
    },
    {
      "doubleSided": true,
      "emissiveFactor": [
        0,
        0,
        0
      ],
      "name": "japanbuilding17",
      "pbrMetallicRoughness": {
        "baseColorFactor": [
          0.14731346070766446,
          0.096477195620536763,
          0.072924315929412786,
          1
        ],
        "metallicFactor": 0.1053734756097561,
        "roughnessFactor": 0.59999999999999998
      }
    }
  ],
  "meshes": [
    {
      "name": "Cylinder_0",
      "primitives": [
        {
          "attributes": {
            "NORMAL": 1,
            "POSITION": 0
          },
          "indices": 2,
          "material": 0,
          "mode": 4
        }
      ]
    },
    {
      "name": "Cylinder_1",
      "primitives": [
        {
          "attributes": {
            "NORMAL": 4,
            "POSITION": 3
          },
          "indices": 5,
          "material": 1,
          "mode": 4
        }
      ]
    },
    {
      "name": "Cylinder_2",
      "primitives": [
        {
          "attributes": {
            "NORMAL": 7,
            "POSITION": 6
          },
          "indices": 8,
          "material": 3,
          "mode": 4
        }
      ]
    },
    {
      "name": "Cylinder.002_0",
      "primitives": [
        {
          "attributes": {
            "NORMAL": 10,
            "POSITION": 9
          },
          "indices": 11,
          "material": 0,
          "mode": 4
        }
      ]
    },
    {
      "name": "Cylinder.002_1",
      "primitives": [
        {
          "attributes": {
            "NORMAL": 13,
            "POSITION": 12
          },
          "indices": 14,
          "material": 1,
          "mode": 4
        }
      ]
    },
    {
      "name": "Cylinder.002_2",
      "primitives": [
        {
          "attributes": {
            "NORMAL": 16,
            "POSITION": 15
          },
          "indices": 17,
          "material": 2,
          "mode": 4
        }
      ]
    }
  ],
  "nodes": [
    {
      "children": [
        1
      ],
      "name": "RootNode (gltf orientation matrix)",
      "rotation": [
        -0.70710678118654746,
        -0,
        -0,
        0.70710678118654757
      ]
    },
    {
      "children": [
        2
      ],
      "name": "RootNode (model correction matrix)"
    },
    {
      "children": [
        3,
        7
      ],
      "name": "Root"
    },
    {
      "children": [
        4,
        5,
        6
      ],
      "matrix": [
        0.40455000000000002,
        0,
        0,
        0,
        0,
        0.40455000000000002,
        0,
        0,
        0,
        0,
        1,
        0,
        5.3096800000000002,
        1.30505,
        0.032720000000000006,
        1
      ],
      "name": "Cylinder"
    },
    {
      "mesh": 0,
      "name": "Cylinder_0"
    },
    {
      "mesh": 1,
      "name": "Cylinder_1"
    },
    {
      "mesh": 2,
      "name": "Cylinder_2"
    },
    {
      "children": [
        8,
        9,
        10
      ],
      "matrix": [
        1,
        0,
        0,
        0,
        0,
        1,
        0,
        0,
        0,
        0,
        1,
        0,
        -9.7893499999999989,
        -0.68125000000000013,
        0.96605000000000008,
        1
      ],
      "name": "Cylinder.002"
    },
    {
      "mesh": 3,
      "name": "Cylinder.002_0"
    },
    {
      "mesh": 4,
      "name": "Cylinder.002_1"
    },
    {
      "mesh": 5,
      "name": "Cylinder.002_2"
    }
  ],
  "scene": 0,
  "scenes": [
    {
      "name": "OSG_Scene",
      "nodes": [
        0
      ]
    }
  ]
}

