<?xml version="1.0" encoding="utf-8"?>
<!-- Svg Vector Icons : http://www.onlinewebfonts.com/icon -->
<!DOCTYPE svg PUBLIC "-//W3C//DTD SVG 1.1//EN" "http://www.w3.org/Graphics/SVG/1.1/DTD/svg11.dtd">
<svg version="1.1" xmlns="http://www.w3.org/2000/svg" xmlns:xlink="http://www.w3.org/1999/xlink" x="0px" y="0px" viewBox="0 0 1000 1000" enable-background="new 0 0 1000 1000" xml:space="preserve">
<metadata> Svg Vector Icons : http://www.onlinewebfonts.com/icon </metadata>
<g><path d="M733.4,152.9c62.7,0,113.6,52.7,113.6,117.5v126.7c0,2.3,0,5.1,0,7.8L152.9,528.6c0-1.5,0-3,0-4.3l3.4-253.9c0-64.8,51-117.5,113.7-117.5H733.4 M733.4,112.1H269.9c-85.3,0-154.5,70.9-154.5,158.3l-3.4,253.4c0,35,0.1,47.5,34.3,47.5l710.5-126.7c30.7-6.1,31-12.5,31-47.5V270.4C887.9,183,818.7,112.1,733.4,112.1L733.4,112.1z"/><path d="M459,601.3c0,1.9-0.1,3.6-0.1,4.8c-0.1,4.8-0.3,10.2,0.3,15.8v218.8l-0.6,6.3v0c-1.1,0-2.2,0-3.4,0H220.7c-16.4,0-67.8-40.2-67.8-96.9v-52.3v-5.2c0-8.6,0-25.1,0.9-37.2L459,601.3 M484.5,555.3l-356.9,63.4c-16.6,0.5-15.5,48.8-15.5,79.2v52.3c0,76.1,66.9,137.8,108.6,137.8h234.5c44,0,41.1-6.9,44.8-45.4V618.6C497.3,616.5,507,555.7,484.5,555.3L484.5,555.3z"/><path d="M847.1,535.2v215c0,53.4-53.4,96.9-118.7,96.9l-122.7-1c-4.9,0-9.6,0.2-14.2,0.4c-1,0-2,0.1-2.9,0.1c-0.6-4.5-1.2-11.2-1.2-21V580c0.5-0.3,1.1-0.7,1.6-1L847.1,535.2 M860.6,491.9c-1.2,0-2.5,0.1-3.7,0.2l-279.3,47.5c-13,4.5-31.1,17.7-31.1,31.7v254.4c0,55.2,14.9,62,36.3,62c7,0,14.7-0.7,22.8-0.7l122.4,1c88,0,159.9-61.7,159.9-137.7V529.9C889.3,506.9,878.8,491.9,860.6,491.9L860.6,491.9z"/><path d="M785.8,71.3c78.8,0,142.9,64.1,142.9,142.9v571.7c0,78.8-64.1,142.9-142.9,142.9H214.2c-78.8,0-142.9-64.1-142.9-142.9V214.2c0-78.8,64.1-142.9,142.9-142.9H785.8 M785.8,10H214.2C101.4,10,10,101.4,10,214.2v571.7C10,898.6,101.4,990,214.2,990h571.7C898.6,990,990,898.6,990,785.8V214.2C990,101.4,898.6,10,785.8,10L785.8,10z"/></g>
</svg>