<?xml version="1.0" encoding="UTF-8" standalone="no"?>
<svg
   xmlns:dc="http://purl.org/dc/elements/1.1/"
   xmlns:cc="http://creativecommons.org/ns#"
   xmlns:rdf="http://www.w3.org/1999/02/22-rdf-syntax-ns#"
   xmlns:svg="http://www.w3.org/2000/svg"
   xmlns="http://www.w3.org/2000/svg"
   xmlns:sodipodi="http://sodipodi.sourceforge.net/DTD/sodipodi-0.dtd"
   xmlns:inkscape="http://www.inkscape.org/namespaces/inkscape"
   width="296mm"
   height="182mm"
   viewBox="0 0 296 182"
   version="1.1"
   id="svg183"
   inkscape:version="1.0.1 (c497b03c, 2020-09-10)"
   sodipodi:docname="fibonacci_spiral_1.svg">
  <defs
     id="defs177" />
  <sodipodi:namedview
     id="base"
     pagecolor="#ffffff"
     bordercolor="#666666"
     borderopacity="1.0"
     inkscape:pageopacity="0.0"
     inkscape:pageshadow="2"
     inkscape:zoom="1.1864801"
     inkscape:cx="986.47211"
     inkscape:cy="380.48899"
     inkscape:document-units="mm"
     inkscape:current-layer="layer1"
     inkscape:document-rotation="0"
     showgrid="false"
     inkscape:window-width="1680"
     inkscape:window-height="948"
     inkscape:window-x="0"
     inkscape:window-y="23"
     inkscape:window-maximized="1"
     height="209mm" />
  <metadata
     id="metadata180">
    <rdf:RDF>
      <cc:Work
         rdf:about="">
        <dc:format>image/svg+xml</dc:format>
        <dc:type
           rdf:resource="http://purl.org/dc/dcmitype/StillImage" />
        <dc:title></dc:title>
      </cc:Work>
    </rdf:RDF>
  </metadata>
  <g
     inkscape:label="Layer 1"
     inkscape:groupmode="layer"
     id="layer1">
    <g
       style="fill:none;stroke:#000000"
       id="g250"
       transform="matrix(0.33547122,0,0,0.33547122,-5.0329299,-6.1801873)">
      <g
         stroke-width="2.5"
         id="g203">
        <rect
           height="16"
           width="16"
           y="402.5"
           x="639.88"
           id="rect185" />
        <rect
           height="16"
           width="16"
           y="418.5"
           x="639.88"
           id="rect187" />
        <rect
           ry="0"
           height="31.875999"
           width="32"
           y="402.62"
           x="655.88"
           id="rect189" />
        <rect
           height="48"
           width="48"
           y="354.5"
           x="639.88"
           id="rect191" />
        <rect
           height="80"
           width="80"
           y="354.5"
           x="559.88"
           id="rect193" />
        <rect
           height="128.41"
           width="128"
           y="434.09"
           x="559.88"
           id="rect195" />
        <rect
           height="207.78"
           width="208.14999"
           y="354.60999"
           x="687.84998"
           id="rect197" />
        <rect
           height="336"
           width="336"
           y="18.5"
           x="560"
           id="rect199" />
        <rect
           height="544"
           width="544"
           y="18.5"
           x="16"
           id="rect201" />
      </g>
      <g
         stroke-width="5"
         id="g221">
        <path
           d="m 400,-213.81 a 16,16 0 0 1 -16,-16"
           transform="translate(255.88,648.31)"
           id="path205" />
        <path
           d="m 432,-245.81 a 32,32 0 0 1 -32,32"
           transform="translate(255.88,648.31)"
           id="path207" />
        <path
           d="m 384,-293.81 a 48,48 0 0 1 48,48"
           transform="translate(255.88,648.31)"
           id="path209" />
        <path
           d="m 304,-213.81 a 80,80 0 0 1 80,-80"
           transform="translate(255.88,648.31)"
           id="path211" />
        <path
           d="m 432,-85.812 a 128,128 0 0 1 -128,-128"
           transform="translate(255.88,648.31)"
           id="path213" />
        <path
           d="m 640,-293.81 a 208,208 0 0 1 -208,208"
           transform="translate(255.88,648.31)"
           id="path215" />
        <path
           d="M 16,562.5 A 544,544 0 0 1 560,18.5"
           id="path217" />
        <path
           d="m 560,18.5 a 336,336 0 0 1 336,336"
           id="path219" />
      </g>
    </g>
  </g>
</svg>
