<?xml version="1.0" encoding="UTF-8" standalone="no"?>
<svg
   xmlns:dc="http://purl.org/dc/elements/1.1/"
   xmlns:cc="http://creativecommons.org/ns#"
   xmlns:rdf="http://www.w3.org/1999/02/22-rdf-syntax-ns#"
   xmlns:svg="http://www.w3.org/2000/svg"
   xmlns="http://www.w3.org/2000/svg"
   xmlns:sodipodi="http://sodipodi.sourceforge.net/DTD/sodipodi-0.dtd"
   xmlns:inkscape="http://www.inkscape.org/namespaces/inkscape"
   width="296mm"
   height="182mm"
   viewBox="0 0 296 182"
   version="1.1"
   id="svg183"
   inkscape:version="1.0.1 (c497b03c, 2020-09-10)"
   sodipodi:docname="rule_of_thrids.svg">
  <defs
     id="defs177" />
  <sodipodi:namedview
     id="base"
     pagecolor="#ffffff"
     bordercolor="#666666"
     borderopacity="1.0"
     inkscape:pageopacity="0.0"
     inkscape:pageshadow="2"
     inkscape:zoom="0.6654548"
     inkscape:cx="386.2969"
     inkscape:cy="302.59252"
     inkscape:document-units="mm"
     inkscape:current-layer="layer1"
     inkscape:document-rotation="0"
     showgrid="false"
     inkscape:window-width="1680"
     inkscape:window-height="948"
     inkscape:window-x="0"
     inkscape:window-y="23"
     inkscape:window-maximized="1"
     height="209mm"
     showguides="false" />
  <metadata
     id="metadata180">
    <rdf:RDF>
      <cc:Work
         rdf:about="">
        <dc:format>image/svg+xml</dc:format>
        <dc:type
           rdf:resource="http://purl.org/dc/dcmitype/StillImage" />
        <dc:title></dc:title>
      </cc:Work>
    </rdf:RDF>
  </metadata>
  <g
     inkscape:label="Layer 1"
     inkscape:groupmode="layer"
     id="layer1">
    <g
       style="fill:none;stroke:#000000"
       id="g250"
       transform="matrix(0.33547122,0,0,0.33547122,300.03105,-77.788717)">
      <g
         stroke-width="2.5"
         id="g203">
        <rect
           height="16"
           width="16"
           y="402.5"
           x="639.88"
           id="rect185" />
        <rect
           height="16"
           width="16"
           y="418.5"
           x="639.88"
           id="rect187" />
        <rect
           ry="0"
           height="31.875999"
           width="32"
           y="402.62"
           x="655.88"
           id="rect189" />
        <rect
           height="48"
           width="48"
           y="354.5"
           x="639.88"
           id="rect191" />
        <rect
           height="80"
           width="80"
           y="354.5"
           x="559.88"
           id="rect193" />
        <rect
           height="128.41"
           width="128"
           y="434.09"
           x="559.88"
           id="rect195" />
        <rect
           height="207.78"
           width="208.14999"
           y="354.60999"
           x="687.84998"
           id="rect197" />
        <rect
           height="336"
           width="336"
           y="18.5"
           x="560"
           id="rect199" />
        <rect
           height="544"
           width="544"
           y="18.5"
           x="16"
           id="rect201" />
      </g>
      <g
         stroke-width="5"
         id="g221">
        <path
           d="m 400,-213.81 a 16,16 0 0 1 -16,-16"
           transform="translate(255.88,648.31)"
           id="path205" />
        <path
           d="m 432,-245.81 a 32,32 0 0 1 -32,32"
           transform="translate(255.88,648.31)"
           id="path207" />
        <path
           d="m 384,-293.81 a 48,48 0 0 1 48,48"
           transform="translate(255.88,648.31)"
           id="path209" />
        <path
           d="m 304,-213.81 a 80,80 0 0 1 80,-80"
           transform="translate(255.88,648.31)"
           id="path211" />
        <path
           d="m 432,-85.812 a 128,128 0 0 1 -128,-128"
           transform="translate(255.88,648.31)"
           id="path213" />
        <path
           d="m 640,-293.81 a 208,208 0 0 1 -208,208"
           transform="translate(255.88,648.31)"
           id="path215" />
        <path
           d="M 16,562.5 A 544,544 0 0 1 560,18.5"
           id="path217" />
        <path
           d="m 560,18.5 a 336,336 0 0 1 336,336"
           id="path219" />
      </g>
    </g>
    <g
       inkscape:label="Camada 1"
       id="layer1-1"
       transform="matrix(0,-1.0807665,-1.0807665,0,-33.463367,177.2902)">
      <g
         id="g966"
         style="stroke:#000000;stroke-width:1;stroke-miterlimit:4;stroke-dasharray:none;stroke-opacity:1"
         transform="matrix(1,0,0,1.0027277,238.78642,16.08445)">
        <rect
           ry="0"
           y="-5.8024359"
           x="-216.29802"
           height="272.62466"
           width="167.84464"
           id="rect830-6"
           style="opacity:1;fill:none;fill-opacity:1;fill-rule:nonzero;stroke:#000000;stroke-width:1;stroke-linecap:round;stroke-linejoin:round;stroke-miterlimit:4;stroke-dasharray:none;stroke-opacity:1;paint-order:markers fill stroke" />
        <rect
           ry="0"
           y="163.08829"
           x="-216.29897"
           height="103.73492"
           width="167.84653"
           id="rect830-6-1"
           style="opacity:1;fill:none;fill-opacity:1;fill-rule:nonzero;stroke:#000000;stroke-width:1;stroke-linecap:round;stroke-linejoin:round;stroke-miterlimit:4;stroke-dasharray:none;stroke-opacity:1;paint-order:markers fill stroke" />
        <rect
           ry="0"
           y="-5.8033891"
           x="-216.29897"
           height="103.73492"
           width="167.84653"
           id="rect830-6-1-4"
           style="opacity:1;fill:none;fill-opacity:1;fill-rule:nonzero;stroke:#000000;stroke-width:1;stroke-linecap:round;stroke-linejoin:round;stroke-miterlimit:4;stroke-dasharray:none;stroke-opacity:1;paint-order:markers fill stroke" />
        <rect
           ry="0"
           y="-5.8027301"
           x="-216.29831"
           height="272.62555"
           width="63.712433"
           id="rect830-6-5"
           style="opacity:1;fill:none;fill-opacity:1;fill-rule:nonzero;stroke:#000000;stroke-width:1;stroke-linecap:round;stroke-linejoin:round;stroke-miterlimit:4;stroke-dasharray:none;stroke-opacity:1;paint-order:markers fill stroke" />
        <rect
           ry="0"
           y="-5.8030248"
           x="-112.16585"
           height="272.62585"
           width="63.713024"
           id="rect830-6-5-1"
           style="opacity:1;fill:none;fill-opacity:1;fill-rule:nonzero;stroke:#000000;stroke-width:1;stroke-linecap:round;stroke-linejoin:round;stroke-miterlimit:4;stroke-dasharray:none;stroke-opacity:1;paint-order:markers fill stroke" />
      </g>
      <path
         style="fill:none;stroke:#000000;stroke-width:1;stroke-linecap:butt;stroke-linejoin:miter;stroke-miterlimit:4;stroke-dasharray:none;stroke-opacity:1"
         d="M 22.4884,10.266187 190.33398,283.63547 v 0"
         id="path818"
         inkscape:connector-curvature="0" />
      <path
         style="fill:none;stroke:#000000;stroke-width:1;stroke-linecap:butt;stroke-linejoin:miter;stroke-miterlimit:4;stroke-dasharray:none;stroke-opacity:1"
         d="M 22.4884,283.63449 190.33398,179.61759"
         id="path820"
         inkscape:connector-curvature="0" />
      <path
         style="fill:none;stroke:#000000;stroke-width:1;stroke-linecap:butt;stroke-linejoin:miter;stroke-miterlimit:4;stroke-dasharray:none;stroke-opacity:1"
         d="M 190.33303,10.266187 22.487454,114.2831"
         id="path822"
         inkscape:connector-curvature="0" />
    </g>
    <path
       style="fill:#000000;stroke-width:0.397597"
       d="m 98.192373,174.46713 c -2.2e-4,-4.42824 -0.118962,-17.84717 -0.263869,-29.81983 L 97.665032,122.87882 H 49.024376 c -32.162036,0 -48.64065141,-0.1347 -48.64065141,-0.3976 0,-0.2629 16.50030641,-0.3976 48.70572341,-0.3976 H 97.795172 V 91.866199 61.648767 H 48.493051 c -32.603015,0 -49.30211966,-0.13467 -49.30211966,-0.397597 0,-0.262927 16.70529466,-0.397598 49.32068766,-0.397598 H 97.832307 L 97.71434,30.636029 C 97.62075,6.6640955 97.6991,0.41850805 98.093371,0.41859935 c 0.393237,9.1e-5 0.496996,6.30872715 0.496996,30.21754365 v 30.217429 l 18.786493,2.65e-4 c 10.33257,1.56e-4 32.60798,0.119055 49.50092,0.264216 l 30.71443,0.263935 v -30.68043 c 0,-20.188562 0.13596,-30.68044135 0.39759,-30.68044135 0.26163,0 0.3976,10.47007335 0.3976,30.61502635 V 61.25117 h 48.30813 c 31.94035,0 48.30814,0.134712 48.30814,0.397597 0,0.262887 -16.38941,0.397597 -48.37298,0.397597 h -48.37297 l 0.26317,18.190099 c 0.14474,10.004552 0.26337,23.602397 0.26363,30.217427 l 5.3e-4,12.02733 h 48.70573 c 32.20542,0 48.70571,0.1347 48.70571,0.3976 0,0.2629 -16.50029,0.3976 -48.70571,0.3976 H 198.785 v 29.62103 c 0,16.29157 -0.1496,29.62103 -0.33245,29.62103 -0.18285,0 -0.45436,-13.27296 -0.60337,-29.49547 -0.14901,-16.22251 -0.31957,-29.54412 -0.37902,-29.60358 -0.0595,-0.0594 -22.24228,-0.23437 -49.29515,-0.38871 l -49.187046,-0.28061 v 29.88419 c 0,19.65772 -0.136056,29.88418 -0.397597,29.88418 -0.25196,0 -0.397743,-2.94911 -0.397994,-8.05135 z M 197.59221,92.263799 V 62.046364 L 168.07057,62.0461 c -16.23689,-2.36e-4 -38.51231,-0.11893 -49.50092,-0.263763 L 98.590367,61.519005 v 9.343096 c 0,5.1387 0.118711,18.765036 0.263803,30.280739 l 0.263797,20.93764 45.956943,0.10274 c 25.27631,0.0565 47.43301,0.14671 49.23711,0.20045 l 3.28019,0.0977 z"
       id="path801" />
  </g>
</svg>
