<svg width="16" height="16" xmlns="http://www.w3.org/2000/svg">

 <g>
  <title>background</title>
  <rect fill="none" id="canvas_background" height="602" width="802" y="-1" x="-1"/>
 </g>
 <g>
  <title>Layer 1</title>
  <path fill="#EEFF9F" id="svg_1" d="m8,1.5c-0.434,0 -0.85658,0.04595 -1.26758,0.12695l0.19531,0.98047c0.347,-0.069 0.70527,-0.10742 1.07227,-0.10742c0.367,0 0.72527,0.03842 1.07227,0.10742l0.19531,-0.98047c-0.411,-0.081 -0.83358,-0.12695 -1.26758,-0.12695zm-3.60937,1.09766c-0.70801,0.475 -1.31016,1.08987 -1.78516,1.79687l0.83008,0.55469c0.402,-0.599 0.91076,-1.11753 1.50976,-1.51953l-0.55468,-0.83203zm7.21875,0l-0.55469,0.83203c0.598,0.402 1.10776,0.92053 1.50976,1.51953l0.83008,-0.55469c-0.475,-0.708 -1.07715,-1.32287 -1.78515,-1.79687zm-9.97266,4.13672c-0.082,0.41099 -0.13672,0.83062 -0.13672,1.26562c0,0.434 0.04595,0.85658 0.12695,1.26758l0.98047,-0.19531c-0.069,-0.347 -0.10742,-0.70527 -0.10742,-1.07227c0,-0.368 0.04623,-0.72231 0.11523,-1.07031l-0.97851,-0.19531zm12.72656,0l-0.97851,0.19531c0.069,0.348 0.11523,0.70231 0.11523,1.07031c0,0.368 -0.04623,0.72231 -0.11523,1.07031l0.97851,0.19532c0.082,-0.411 0.13672,-0.83063 0.13672,-1.26563c0,-0.435 -0.05472,-0.85463 -0.13672,-1.26562zm-1.79883,4.3164c-0.402,0.599 -0.91076,1.11753 -1.50976,1.51953l0.55469,0.83203c0.708,-0.475 1.31115,-1.08987 1.78515,-1.79687l-0.83008,-0.55469zm-9.13476,0.00391l-0.83203,0.55469c0.475,0.708 1.08987,1.31015 1.79687,1.78515l0.55469,-0.83008c-0.599,-0.402 -1.11753,-0.91076 -1.51953,-1.50976zm3.5,2.33008l-0.19531,0.97851c0.41099,0.082 0.83062,0.13672 1.26562,0.13672c0.434,0 0.85658,-0.04595 1.26758,-0.12695l-0.19531,-0.98047c-0.347,0.069 -0.70527,0.10742 -1.07227,0.10742c-0.368,0 -0.72231,-0.04623 -1.07031,-0.11523z"/>
 </g>
</svg>