<svg width="800" height="800" xmlns="http://www.w3.org/2000/svg">
 <!-- Created with Method Draw - http://github.com/duopixel/Method-Draw/ -->

 <g>
  <title>background</title>
  <rect fill="none" id="canvas_background" height="51.99993" width="51.99993" y="-1" x="-1"/>
  <g display="none" id="canvasGrid">
   <rect fill="url(#gridpattern)" stroke-width="0" y="0" x="0" height="100%" width="100%" id="svg_1"/>
  </g>
 </g>
 <g>
  <title>Layer 1</title>
  <g id="svg_28">
   <g transform="matrix(20.6771, 0, 0, 20.607, 198.359, 190.941)" id="svg_7">
    <g id="svg_5">
     <g id="svg_8">
      <polygon id="svg_9" fill="#eeff9f" points="21.06108469888568,19.02618408203125 16.47508616372943,14.440185546875 13.647084187716246,17.268184661865234 18.23308176919818,21.85418701171875 13.647084187716246,26.440183639526367 25.64708323404193,26.440183639526367 25.64708323404193,14.440185546875 "/>
      <polygon id="svg_10" fill="#eeff9f" points="5.6470837108790874,-5.559814929962158 -6.3529162891209126,-5.559814929962158 -6.3529162891209126,6.440185070037842 -1.7669179923832417,1.8541865348815918 2.7760812751948833,6.393184185028076 5.6040844433009624,3.565185070037842 1.0610849373042583,-0.9738163948059082 "/>
      <polygon id="svg_11" fill="#eeff9f" points="5.6470837108790874,17.268184661865234 2.819084357470274,14.440185546875 -1.7669179923832417,19.02618408203125 -6.3529162891209126,14.440185546875 -6.3529162891209126,26.440183639526367 5.6470837108790874,26.440183639526367 1.0610849373042583,21.85418701171875 "/>
      <polygon id="svg_12" fill="#eeff9f" points="25.64708323404193,-5.559814929962158 13.647084187716246,-5.559814929962158 18.23308176919818,-0.9738163948059082 13.69008345529437,3.565185070037842 16.518085431307554,6.393184185028076 21.06108469888568,1.8541865348815918 25.64708323404193,6.440185070037842 "/>
     </g>
    </g>
   </g>
   <g transform="matrix(20.6771, 0, 0, 20.607, 198.359, 190.941)" id="svg_13"/>
   <g transform="matrix(20.6771, 0, 0, 20.607, 198.359, 190.941)" id="svg_14"/>
   <g transform="matrix(20.6771, 0, 0, 20.607, 198.359, 190.941)" id="svg_15"/>
   <g transform="matrix(20.6771, 0, 0, 20.607, 198.359, 190.941)" id="svg_16"/>
   <g transform="matrix(20.6771, 0, 0, 20.607, 198.359, 190.941)" id="svg_17"/>
   <g transform="matrix(20.6771, 0, 0, 20.607, 198.359, 190.941)" id="svg_18"/>
   <g transform="matrix(20.6771, 0, 0, 20.607, 198.359, 190.941)" id="svg_19"/>
   <g transform="matrix(20.6771, 0, 0, 20.607, 198.359, 190.941)" id="svg_20"/>
   <g transform="matrix(20.6771, 0, 0, 20.607, 198.359, 190.941)" id="svg_21"/>
   <g transform="matrix(20.6771, 0, 0, 20.607, 198.359, 190.941)" id="svg_22"/>
   <g transform="matrix(20.6771, 0, 0, 20.607, 198.359, 190.941)" id="svg_23"/>
   <g transform="matrix(20.6771, 0, 0, 20.607, 198.359, 190.941)" id="svg_24"/>
   <g transform="matrix(20.6771, 0, 0, 20.607, 198.359, 190.941)" id="svg_25"/>
   <g transform="matrix(20.6771, 0, 0, 20.607, 198.359, 190.941)" id="svg_26"/>
   <g transform="matrix(20.6771, 0, 0, 20.607, 198.359, 190.941)" id="svg_27"/>
  </g>
 </g>
</svg>