<svg width="800" height="800" xmlns="http://www.w3.org/2000/svg">
 <!-- Created with Method Draw - http://github.com/duopixel/Method-Draw/ -->

 <g>
  <title>background</title>
  <rect fill="none" id="canvas_background" height="802" width="802" y="-1" x="-1"/>
 </g>
 <g>
  <title>Layer 1</title>
  <metadata>Svg Vector Icons : http://www.onlinewebfonts.com/icon</metadata>
  <g id="svg_6">
   <g id="svg_4" transform="matrix(0.794898, 0, 0, 0.79898, -1190.3, -796.969)">
    <path d="m1998.74198,1010c-270.6,0 -490,219.4 -490,490c0,270.6 219.4,490 490,490c270.6,0 490,-219.4 490,-490c0,-270.6 -219.4,-490 -490,-490zm-71.1,688.9c-29.6,0 -57.7,-4.8 -83.2,-13.3l-77.9,49.5l41.6,-65.2c-53.7,-28.9 -88.9,-76.6 -88.9,-130.7c0,-68 55.5,-125.9 133.6,-148.9c-8.8,17.7 -13.8,36.7 -13.8,56.7c0,88.2 93.3,159.7 208.4,159.7c26.4,0 51.6,-4 74.8,-10.9c-29.8,60.2 -105.6,103.1 -194.6,103.1zm261.8,-143.6l41.6,65.2l-77.8,-49.5c-25.5,8.5 -53.7,13.3 -83.3,13.3c-115.1,0 -208.4,-71.5 -208.4,-159.7c0,-88.2 93.3,-159.7 208.4,-159.7c115.1,0 208.4,71.5 208.4,159.7c0,54 -35.2,101.8 -88.9,130.7z" id="svg_5" fill="#EEFF9F"/>
   </g>
  </g>
 </g>
</svg>