<svg width="128" height="128" xmlns="http://www.w3.org/2000/svg">
 <g>
  <title>background</title>
  <rect x="-1" y="-1" width="130" height="130" id="canvas_background" fill="none"/>
 </g>

 <g>
  <title>Layer 1</title>
  <g id="svg_6">
   <path d="m96.436,70.294a8.523,8.523 0 0 0 -6.236,1.913a8.412,8.412 0 0 0 -13.43,-4.09a8.411,8.411 0 0 0 -13.05,-4.486l0,-31.761a12.533,12.533 0 1 0 -16.957,0l0,31.061l-5.386,4.369a27.074,27.074 0 0 0 -10.053,21.106a27.348,27.348 0 0 0 2.695,11.8l12.915,26.8a1.751,1.751 0 0 0 1.577,0.99l53.828,0a1.75,1.75 0 0 0 1.75,-1.75l0,-47.223a8.7,8.7 0 0 0 -7.653,-8.729zm-50.231,-47.621a9.033,9.033 0 1 1 17.046,4.171a8.429,8.429 0 0 0 -16.069,-0.083a8.991,8.991 0 0 1 -0.977,-4.088zm54.382,101.827l-50.978,0l-12.437,-25.813a23.683,23.683 0 0 1 6.411,-28.67l3.177,-2.579l0,28.612a1.75,1.75 0 0 0 3.5,0l0,-66.65a4.991,4.991 0 0 1 1.631,-3.685a4.926,4.926 0 0 1 2.789,-1.265a5.087,5.087 0 0 1 1.053,-0.005a5.177,5.177 0 0 1 4.484,5.244l0,40.8a1.75,1.75 0 0 0 3.5,0a4.991,4.991 0 0 1 1.631,-3.685a4.939,4.939 0 0 1 3.842,-1.27a5.176,5.176 0 0 1 4.484,5.244l0,3.883a1.75,1.75 0 0 0 3.5,0a4.979,4.979 0 0 1 5.474,-4.955a5.176,5.176 0 0 1 4.483,5.244l0,3.779a1.75,1.75 0 0 0 3.5,0a4.979,4.979 0 0 1 5.469,-4.95a5.176,5.176 0 0 1 4.483,5.244l0.004,45.477z" id="svg_1" fill="#D1FFB4"/>
   <path d="m40.392,37.52a1.75,1.75 0 0 0 2.475,-2.475a17.517,17.517 0 0 1 0,-24.744a1.75,1.75 0 0 0 -2.475,-2.475a21.02,21.02 0 0 0 0,29.694z" id="svg_2" fill="#D1FFB4"/>
   <path d="m67.61,35.045a1.75,1.75 0 1 0 2.475,2.475a21.02,21.02 0 0 0 0,-29.693a1.75,1.75 0 0 0 -2.475,2.473a17.517,17.517 0 0 1 0,24.745z" id="svg_3" fill="#D1FFB4"/>
   <path d="m34.315,45.346a1.75,1.75 0 0 0 1.237,-2.987a27.872,27.872 0 0 1 0,-39.372a1.75,1.75 0 1 0 -2.474,-2.474a31.375,31.375 0 0 0 0,44.321a1.744,1.744 0 0 0 1.237,0.512z" id="svg_4" fill="#D1FFB4"/>
   <path d="m74.924,42.358a1.75,1.75 0 1 0 2.476,2.475a31.377,31.377 0 0 0 0,-44.32a1.75,1.75 0 0 0 -2.475,2.475a27.873,27.873 0 0 1 -0.001,39.37z" id="svg_5" fill="#D1FFB4"/>
  </g>
  <g id="svg_12">
   <path d="m95.186,70.294a8.523,8.523 0 0 0 -6.236,1.913a8.412,8.412 0 0 0 -13.43,-4.09a8.411,8.411 0 0 0 -13.05,-4.486l0,-31.761a12.533,12.533 0 1 0 -16.957,0l0,31.061l-5.386,4.369a27.074,27.074 0 0 0 -10.053,21.106a27.348,27.348 0 0 0 2.695,11.8l12.915,26.8a1.751,1.751 0 0 0 1.577,0.99l53.828,0a1.75,1.75 0 0 0 1.75,-1.75l0,-47.223a8.7,8.7 0 0 0 -7.653,-8.729zm-50.231,-47.621a9.033,9.033 0 1 1 17.046,4.171a8.429,8.429 0 0 0 -16.069,-0.083a8.991,8.991 0 0 1 -0.977,-4.088zm54.382,101.827l-50.978,0l-12.437,-25.813a23.683,23.683 0 0 1 6.411,-28.67l3.177,-2.579l0,28.612a1.75,1.75 0 0 0 3.5,0l0,-66.65a4.991,4.991 0 0 1 1.631,-3.685a4.926,4.926 0 0 1 2.789,-1.265a5.087,5.087 0 0 1 1.053,-0.005a5.177,5.177 0 0 1 4.484,5.244l0,40.8a1.75,1.75 0 0 0 3.5,0a4.991,4.991 0 0 1 1.631,-3.685a4.939,4.939 0 0 1 3.842,-1.27a5.176,5.176 0 0 1 4.484,5.244l0,3.883a1.75,1.75 0 0 0 3.5,0a4.979,4.979 0 0 1 5.474,-4.955a5.176,5.176 0 0 1 4.483,5.244l0,3.779a1.75,1.75 0 0 0 3.5,0a4.979,4.979 0 0 1 5.469,-4.95a5.176,5.176 0 0 1 4.483,5.244l0.004,45.477z" id="svg_7" fill="#D1FFB4"/>
   <path d="m39.142,37.52a1.75,1.75 0 0 0 2.475,-2.475a17.517,17.517 0 0 1 0,-24.744a1.75,1.75 0 0 0 -2.475,-2.475a21.02,21.02 0 0 0 0,29.694z" id="svg_8" fill="#D1FFB4"/>
   <path d="m66.36,35.045a1.75,1.75 0 1 0 2.475,2.475a21.02,21.02 0 0 0 0,-29.693a1.75,1.75 0 0 0 -2.475,2.473a17.517,17.517 0 0 1 0,24.745z" id="svg_9" fill="#D1FFB4"/>
   <path d="m33.065,45.346a1.75,1.75 0 0 0 1.237,-2.987a27.872,27.872 0 0 1 0,-39.372a1.75,1.75 0 1 0 -2.474,-2.474a31.375,31.375 0 0 0 0,44.321a1.744,1.744 0 0 0 1.237,0.512z" id="svg_10" fill="#D1FFB4"/>
   <path d="m73.674,42.358a1.75,1.75 0 1 0 2.476,2.475a31.377,31.377 0 0 0 0,-44.32a1.75,1.75 0 0 0 -2.475,2.475a27.873,27.873 0 0 1 -0.001,39.37z" id="svg_11" fill="#D1FFB4"/>
  </g>
  <g id="svg_18">
   <path d="m94.186,70.294a8.523,8.523 0 0 0 -6.236,1.913a8.412,8.412 0 0 0 -13.43,-4.09a8.411,8.411 0 0 0 -13.05,-4.486l0,-31.761a12.533,12.533 0 1 0 -16.957,0l0,31.061l-5.386,4.369a27.074,27.074 0 0 0 -10.053,21.106a27.348,27.348 0 0 0 2.695,11.8l12.915,26.8a1.751,1.751 0 0 0 1.577,0.99l53.828,0a1.75,1.75 0 0 0 1.75,-1.75l0,-47.223a8.7,8.7 0 0 0 -7.653,-8.729zm-50.231,-47.621a9.033,9.033 0 1 1 17.046,4.171a8.429,8.429 0 0 0 -16.069,-0.083a8.991,8.991 0 0 1 -0.977,-4.088zm54.382,101.827l-50.978,0l-12.437,-25.813a23.683,23.683 0 0 1 6.411,-28.67l3.177,-2.579l0,28.612a1.75,1.75 0 0 0 3.5,0l0,-66.65a4.991,4.991 0 0 1 1.631,-3.685a4.926,4.926 0 0 1 2.789,-1.265a5.087,5.087 0 0 1 1.053,-0.005a5.177,5.177 0 0 1 4.484,5.244l0,40.8a1.75,1.75 0 0 0 3.5,0a4.991,4.991 0 0 1 1.631,-3.685a4.939,4.939 0 0 1 3.842,-1.27a5.176,5.176 0 0 1 4.484,5.244l0,3.883a1.75,1.75 0 0 0 3.5,0a4.979,4.979 0 0 1 5.474,-4.955a5.176,5.176 0 0 1 4.483,5.244l0,3.779a1.75,1.75 0 0 0 3.5,0a4.979,4.979 0 0 1 5.469,-4.95a5.176,5.176 0 0 1 4.483,5.244l0.004,45.477z" id="svg_13" fill="#D1FFB4"/>
   <path d="m38.142,37.52a1.75,1.75 0 0 0 2.475,-2.475a17.517,17.517 0 0 1 0,-24.744a1.75,1.75 0 0 0 -2.475,-2.475a21.02,21.02 0 0 0 0,29.694z" id="svg_14" fill="#D1FFB4"/>
   <path d="m65.36,35.045a1.75,1.75 0 1 0 2.475,2.475a21.02,21.02 0 0 0 0,-29.693a1.75,1.75 0 0 0 -2.475,2.473a17.517,17.517 0 0 1 0,24.745z" id="svg_15" fill="#D1FFB4"/>
   <path d="m32.065,45.346a1.75,1.75 0 0 0 1.237,-2.987a27.872,27.872 0 0 1 0,-39.372a1.75,1.75 0 1 0 -2.474,-2.474a31.375,31.375 0 0 0 0,44.321a1.744,1.744 0 0 0 1.237,0.512z" id="svg_16" fill="#D1FFB4"/>
   <path d="m72.674,42.358a1.75,1.75 0 1 0 2.476,2.475a31.377,31.377 0 0 0 0,-44.32a1.75,1.75 0 0 0 -2.475,2.475a27.873,27.873 0 0 1 -0.001,39.37z" id="svg_17" fill="#D1FFB4"/>
  </g>
  <path d="m95.436,69.044a8.523,8.523 0 0 0 -6.236,1.913a8.412,8.412 0 0 0 -13.43,-4.09a8.411,8.411 0 0 0 -13.05,-4.486l0,-31.761a12.533,12.533 0 1 0 -16.957,0l0,31.061l-5.386,4.369a27.074,27.074 0 0 0 -10.053,21.106a27.348,27.348 0 0 0 2.695,11.8l12.915,26.8a1.751,1.751 0 0 0 1.577,0.99l53.828,0a1.75,1.75 0 0 0 1.75,-1.75l0,-47.223a8.7,8.7 0 0 0 -7.653,-8.729zm-50.231,-47.621a9.033,9.033 0 1 1 17.046,4.171a8.429,8.429 0 0 0 -16.069,-0.083a8.991,8.991 0 0 1 -0.977,-4.088zm54.382,101.827l-50.978,0l-12.437,-25.813a23.683,23.683 0 0 1 6.411,-28.67l3.177,-2.579l0,28.612a1.75,1.75 0 0 0 3.5,0l0,-66.65a4.991,4.991 0 0 1 1.631,-3.685a4.926,4.926 0 0 1 2.789,-1.265a5.087,5.087 0 0 1 1.053,-0.005a5.177,5.177 0 0 1 4.484,5.244l0,40.8a1.75,1.75 0 0 0 3.5,0a4.991,4.991 0 0 1 1.631,-3.685a4.939,4.939 0 0 1 3.842,-1.27a5.176,5.176 0 0 1 4.484,5.244l0,3.883a1.75,1.75 0 0 0 3.5,0a4.979,4.979 0 0 1 5.474,-4.955a5.176,5.176 0 0 1 4.483,5.244l0,3.779a1.75,1.75 0 0 0 3.5,0a4.979,4.979 0 0 1 5.469,-4.95a5.176,5.176 0 0 1 4.483,5.244l0.004,45.477z" id="svg_19" fill="#D1FFB4"/>
  <path d="m39.392,36.27a1.75,1.75 0 0 0 2.475,-2.475a17.517,17.517 0 0 1 0,-24.744a1.75,1.75 0 0 0 -2.475,-2.475a21.02,21.02 0 0 0 0,29.694z" id="svg_20" fill="#D1FFB4"/>
  <path d="m66.61,33.795a1.75,1.75 0 1 0 2.475,2.475a21.02,21.02 0 0 0 0,-29.693a1.75,1.75 0 0 0 -2.475,2.473a17.517,17.517 0 0 1 0,24.745z" id="svg_21" fill="#D1FFB4"/>
  <path d="m33.315,44.096a1.75,1.75 0 0 0 1.237,-2.987a27.872,27.872 0 0 1 0,-39.372a1.75,1.75 0 1 0 -2.474,-2.474a31.375,31.375 0 0 0 0,44.321a1.744,1.744 0 0 0 1.237,0.512z" id="svg_22" fill="#D1FFB4"/>
  <path d="m73.924,41.108a1.75,1.75 0 1 0 2.476,2.475a31.377,31.377 0 0 0 0,-44.32a1.75,1.75 0 0 0 -2.475,2.475a27.873,27.873 0 0 1 -0.001,39.37z" id="svg_23" fill="#D1FFB4"/>
  <line fill="none" stroke="null" stroke-width="null" stroke-opacity="null" x1="45.125" y1="122" x2="51.375" y2="89" id="svg_25" stroke-linejoin="null" stroke-linecap="null"/>
  <line fill="none" stroke="null" stroke-width="null" stroke-opacity="null" x1="58.625" y1="87.75" x2="77.875" y2="97.5" id="svg_26" stroke-linejoin="null" stroke-linecap="null"/>
  <line fill="none" stroke="null" stroke-width="null" stroke-opacity="null" x1="4.375" y1="33.5" x2="24.625" y2="71.25" id="svg_27" stroke-linejoin="null" stroke-linecap="null"/>
  <path fill="#D1FFB4" stroke="null" stroke-width="null" stroke-opacity="null" d="m46.625,123.75l-10.125,-20.25l-5.25,-12.75l2.75,-12l5.75,-8.25l6.5,-5.5l0.5,-25l0.5,-12.75l6.75,-4.5c0.125,0 5.375,3.5 5.375,3.5c0,0 1,41.25 0.875,41.25c0.125,0 3.875,-3.5 3.75,-3.5c0.125,0 5.375,1.25 5.25,1.25c0.125,0 4.125,4.25 4,4.25c0.125,0 5.625,-1.25 5.625,-1.25c0,0 8.75,2.75 8.75,2.75c0,0 0.75,4.75 0.625,4.75c0.125,0 3.625,-2.75 3.5,-2.75c0.125,0 5.875,0.5 6.125,0.5c0.25,0 3.5,7.25 3.375,7.25c0.125,0 -0.625,45.25 -0.75,45.25c0.125,0 -43.375,0.25 -43.5,0.25c0.125,0 -10.375,-2.5 -10.375,-2.5z" id="svg_28"/>
  <path d="m35.89206,37.76997a1.75,1.75 0 0 0 2.475,-2.475a17.517,17.517 0 0 1 0,-24.744a1.75,1.75 0 0 0 -2.475,-2.475a21.02,21.02 0 0 0 0,29.694z" id="svg_24" fill="#D1FFB4"/>
  <path d="m29.81506,45.59597a1.75,1.75 0 0 0 1.237,-2.987a27.872,27.872 0 0 1 0,-39.372a1.75,1.75 0 1 0 -2.474,-2.474a31.375,31.375 0 0 0 0,44.321a1.744,1.744 0 0 0 1.237,0.512z" id="svg_29" fill="#D1FFB4"/>
  <path d="m70.10994,34.46165a1.75,1.75 0 1 0 2.475,2.475a21.02,21.02 0 0 0 0,-29.693a1.75,1.75 0 0 0 -2.475,2.473a17.517,17.517 0 0 1 0,24.745z" id="svg_30" fill="#D1FFB4"/>
  <path d="m77.42394,41.77465a1.75,1.75 0 1 0 2.476,2.475a31.377,31.377 0 0 0 0,-44.32a1.75,1.75 0 0 0 -2.475,2.475a27.873,27.873 0 0 1 -0.001,39.37z" id="svg_31" fill="#D1FFB4"/>
 </g>
</svg>