<svg width="256" height="256" xmlns="http://www.w3.org/2000/svg">
 <metadata id="metadata6559">image/svg+xml</metadata>

 <g>
  <title>background</title>
  <rect fill="none" id="canvas_background" height="258" width="258" y="-1" x="-1"/>
 </g>
 <g>
  <title>Layer 1</title>
  <path fill="none" id="path6549" d="m0,-8l24,0l0,24l-24,0l0,-24zm0,0l24,0l0,24l-24,0l0,-24zm0,0l24,0l0,24l-24,0l0,-24z"/>
  <path fill="#fc9c9c" stroke-width="0.88889" id="path6551" d="m223.88886,7l-189.77771,0c-14.91114,0 -27.11114,12.2 -27.11114,27.11115l0,189.77771c0,14.91114 12.2,27.11114 27.11115,27.11114l189.77771,0c14.91114,0 27.11114,-12.2 27.11114,-27.11114l0,-189.77771c0,-14.91114 -12.2,-27.11114 -27.11114,-27.11114zm-176.22214,54.22229l67.77771,0l0,20.33328l-67.77771,0l0,-20.33328zm176.22214,162.66656l-189.77771,0l189.77771,-189.77771l0,189.77771zm-61,-40.66657l0,27.11099l20.33343,0l0,-27.11099l27.11099,0l0,-20.33343l-27.11099,0l0,-27.11114l-20.33343,0l0,27.11114l-27.11114,0l0,20.33343l27.11114,0z"/>
 </g>
</svg>