<svg width="1000.0000000000001" height="1000.0000000000001" xmlns="http://www.w3.org/2000/svg">
 <metadata>Svg Vector Icons : http://www.onlinewebfonts.com/icon</metadata>

 <g>
  <title>background</title>
  <rect fill="none" id="canvas_background" height="602" width="802" y="-1" x="-1"/>
 </g>
 <g>
  <title>Layer 1</title>
  <g id="svg_1">
   <path fill="#A8FFE9" id="svg_2" d="m39.33329,192.98188c144.30423,-42.33783 288.60846,-85.30756 433.10268,-126.69753c18.9999,-5.37122 41.22978,-7.0563 59.84968,-1.68509c145.82422,41.6006 291.07844,85.41288 437.94766,128.80389c0,206.52856 0,411.58267 0,620.3229c-84.07455,25.06568 -169.2891,50.44731 -254.50364,75.82895c-7.78996,2.317 -15.29492,5.79249 -23.27488,7.0563c-72.86461,11.58498 -139.83925,64.03333 -216.69384,45.28673c-71.81962,-17.37747 -142.30924,-41.6006 -213.27386,-62.45356c-74.3846,-21.90614 -148.7692,-43.60164 -223.15381,-65.29715c0,-207.05515 0,-414.00498 0,-621.16545l0,0zm61.36967,102.57971c0,154.81743 -0.38,301.84133 0.94999,448.54928c0,8.84671 12.82493,22.74868 21.84988,25.59227c109.62941,33.91239 219.82882,66.35033 330.02824,98.57763c6.74496,2.10636 14.34492,0.21064 22.70488,0.21064c0,-147.55049 -0.38,-291.83612 0.38,-436.33239c0.19,-20.85296 -6.93496,-28.96244 -24.41487,-33.70175c-43.60477,-11.58498 -86.92454,-25.171 -130.1493,-38.01979c-72.19961,-20.85296 -144.30423,-42.12719 -221.34882,-64.87588l0,0zm561.637,74.03854c-36.19481,10.5318 -66.78464,21.6955 -98.22947,28.1199c-23.84487,4.73931 -27.92985,18.43065 -27.73985,42.12719c0.76,133.96447 0.38,268.13958 0.57,402.10405c0,9.47862 1.51999,19.06255 2.37499,29.59435c7.12496,-0.84254 11.77994,-0.84254 16.05491,-2.317c112.2894,-33.06985 224.1038,-66.98224 336.5832,-98.57763c23.46487,-6.63503 20.13989,-23.16996 20.13989,-40.54742c0,-132.70065 0.19,-265.40131 0,-398.3126c0,-10.74243 -1.70999,-21.27423 -2.75499,-35.17621c-34.67481,9.89989 -65.45465,19.58914 -96.80448,27.06672c-19.75989,4.73931 -28.49985,14.42856 -27.45485,38.6517c1.89999,38.23043 1.32999,76.67149 0,114.69128c-0.38,9.26798 -6.17497,24.22314 -12.53993,26.22418c-35.24481,12.42752 -71.43962,21.48487 -110.19941,32.64857c-0.095,-56.76639 -0.095,-109.10943 0,-166.29709l0,0zm-14.43992,-63.29611c0.38,-2.52763 0.94999,-4.94995 1.32999,-7.68821c-8.16996,-3.05422 -16.24491,-6.63503 -24.60487,-9.05735c-101.07946,-30.22626 -202.06392,-60.3472 -303.14338,-90.15219c-66.40465,-19.58914 -147.72421,-7.89885 -212.03887,31.17412c131.0993,38.86233 259.72861,77.09276 388.54792,114.90192c7.31496,2.10636 16.05491,0.21064 23.65487,-2.10636c42.17977,-11.90093 84.16955,-24.64441 126.25433,-37.07193l0,0zm263.14859,-79.83103c-114.85439,-34.12303 -220.39882,-60.13657 -322.61828,-97.52445c-69.72963,-25.59227 -132.04929,-13.90197 -200.63893,15.90301c13.01493,4.73931 22.22988,8.84671 31.72983,11.58498c98.60947,29.59435 198.73894,54.13344 295.54342,89.73092c67.16464,24.74973 125.49433,4.94995 195.98395,-19.69446z"/>
  </g>
 </g>
</svg>