<svg width="64" height="84" xmlns="http://www.w3.org/2000/svg">
 <g>
  <title>background</title>
  <rect x="-1" y="-1" width="66" height="86" id="canvas_background" fill="none"/>
 </g>

 <g>
  <title>Layer 1</title>
  <path d="m24,12c0,-6.628 -5.374,-12 -12,-12c-6.627,0 -12,5.372 -12,12c0,4.938 2.986,9.178 7.25,11.019l0,37.963c-4.264,1.839 -7.25,6.079 -7.25,11.018c0,6.626 5.373,12 12,12c6.626,0 12,-5.374 12,-12c0,-4.939 -2.986,-9.179 -7.25,-11.019l0,-37.962c4.264,-1.841 7.25,-6.081 7.25,-11.019zm-5.077,60c0,3.823 -3.1,6.923 -6.923,6.923c-3.822,0 -6.923,-3.1 -6.923,-6.923s3.101,-6.923 6.923,-6.923c3.823,0 6.923,3.1 6.923,6.923zm-6.923,-53.077c-3.822,0 -6.923,-3.1 -6.923,-6.923s3.101,-6.923 6.923,-6.923c3.823,0 6.923,3.1 6.923,6.923s-3.1,6.923 -6.923,6.923zm44.75,42.058l0,-37.962c4.264,-1.841 7.25,-6.081 7.25,-11.019c0,-6.628 -5.374,-12 -12,-12c-6.627,0 -12,5.372 -12,12c0,4.938 2.986,9.178 7.25,11.019l0,37.963c-4.263,1.839 -7.25,6.079 -7.25,11.018c0,6.626 5.373,12 12,12c6.626,0 12,-5.374 12,-12c0,-4.939 -2.986,-9.179 -7.25,-11.019zm-11.673,-48.981c0,-3.823 3.102,-6.923 6.924,-6.923s6.922,3.1 6.922,6.923s-3.1,6.923 -6.922,6.923s-6.924,-3.1 -6.924,-6.923zm6.923,66.923c-3.822,0 -6.924,-3.1 -6.924,-6.923s3.102,-6.923 6.924,-6.923s6.922,3.1 6.922,6.923s-3.099,6.923 -6.922,6.923z" id="svg_1" fill="#ffff91"/>
  <g id="svg_2"/>
  <g id="svg_3"/>
  <g id="svg_4"/>
  <g id="svg_5"/>
  <g id="svg_6"/>
  <g id="svg_7"/>
  <g id="svg_8"/>
  <g id="svg_9"/>
  <g id="svg_10"/>
  <g id="svg_11"/>
  <g id="svg_12"/>
  <g id="svg_13"/>
  <g id="svg_14"/>
  <g id="svg_15"/>
  <g id="svg_16"/>
 </g>
</svg>