<svg width="26" height="26" xmlns="http://www.w3.org/2000/svg">

 <g>
  <title>background</title>
  <rect fill="none" id="canvas_background" height="602" width="802" y="-1" x="-1"/>
 </g>
 <g>
  <title>Layer 1</title>
  <g id="svg_1">
   <path id="svg_2" fill="#FFDFB8" d="m21.125,0l-16.25,0c-2.693,0 -4.875,2.182 -4.875,4.875l0,16.25c0,2.693 2.182,4.875 4.875,4.875l16.25,0c2.693,0 4.875,-2.182 4.875,-4.875l0,-16.25c0,-2.693 -2.182,-4.875 -4.875,-4.875zm-2.125,18c0,0.551 -0.449,1 -1,1l-2,0c-0.551,0 -1,-0.449 -1,-1l0,-3.618l-5.569,4.425c-0.139,0.068 -0.289,0.104 -0.439,0.104c-0.179,0 -0.356,-0.049 -0.512,-0.144c-0.29,-0.174 -0.48,-0.485 -0.48,-0.817l0,-9.899c0,-0.334 0.19,-0.644 0.479,-0.817c0.288,-0.175 0.649,-0.191 0.952,-0.039l5.569,4.423l0,-3.618c0,-0.551 0.449,-1 1,-1l2,0c0.551,0 1,0.449 1,1l0,10z"/>
  </g>
  <g id="svg_3"/>
  <g id="svg_4"/>
  <g id="svg_5"/>
  <g id="svg_6"/>
  <g id="svg_7"/>
  <g id="svg_8"/>
  <g id="svg_9"/>
  <g id="svg_10"/>
  <g id="svg_11"/>
  <g id="svg_12"/>
  <g id="svg_13"/>
  <g id="svg_14"/>
  <g id="svg_15"/>
  <g id="svg_16"/>
  <g id="svg_17"/>
 </g>
</svg>