<svg width="1000.0000000000001" height="1000.0000000000001" xmlns="http://www.w3.org/2000/svg">
 <metadata>Svg Vector Icons : http://www.onlinewebfonts.com/icon</metadata>

 <g>
  <title>background</title>
  <rect fill="none" id="canvas_background" height="1002" width="1002" y="-1" x="-1"/>
 </g>
 <g>
  <title>Layer 1</title>
  <rect fill="#0fffff" stroke="#ffffff" stroke-width="50" x="33.16614" y="35.93403" width="930.66754" height="925.26037" id="svg_4" fill-opacity="0" rx="100"/>
  <g id="svg_14">
   <g id="svg_1">
    <g id="svg_2" transform="translate(0, 511) scale(0.1, -0.1)">
     <path fill="#ffffff" id="svg_3" d="m1277.95553,3871.36593c-195.20126,-47.41644 -372.928,-227.18659 -465.02125,-468.18579l-50.76724,-132.35371l0,-3348.21903l0,-3348.21903l50.76724,-132.35371c95.24033,-248.93631 269.82,-420.76935 479.2659,-470.14429c117.43546,-27.62523 6932.4193,-27.62523 7049.85475,0c209.52871,49.37495 384.10839,221.20799 479.2659,470.14429l50.76724,132.35371l4.80342,3318.63529c3.14707,3267.30185 3.14707,3320.59379 -28.5721,3447.07199c-39.66967,163.99903 -125.38596,304.18676 -249.19839,408.91524c-187.25077,156.06193 104.76436,144.20782 -3785.18192,142.24932c-1918.71995,-2.16466 -3496.31387,-9.99869 -3535.98353,-19.89429l-0.00001,0l-0.00001,-0.00001zm7075.27979,-499.83111c60.29126,-39.47934 122.23889,-128.4367 144.43403,-207.39537c12.67111,-49.37495 17.47453,-645.89435 17.47453,-2153.11861l-1.57354,-2086.01405l-271.39353,345.72769c-149.15464,189.66575 -604.65186,776.28956 -1010.95538,1303.7459c-406.30353,527.45633 -755.46284,973.89242 -777.65799,991.62204c-52.34077,45.45793 -139.6306,45.45793 -195.20126,0c-23.76868,-17.8327 -423.77805,-517.56074 -887.14296,-1110.16314c-463.61335,-592.6024 -915.88069,-1169.43368 -1006.3176,-1281.99619l-161.90856,-203.47837l-536.41009,671.66416c-391.97607,495.81102 -547.50766,677.53967 -582.45672,685.47677c-119.009,33.60383 -96.81387,57.31204 -1036.38042,-1135.82986c-487.21639,-620.22763 -891.94639,-1125.93425 -898.32335,-1125.93425c-7.9505,0 -14.24464,1137.78836 -14.24464,2528.53311c0,2834.67838 -7.9505,2635.11702 115.86193,2747.78261l63.52116,57.31204l3497.97022,0c2980.44257,-0.20616 3504.18155,-4.22624 3540.70415,-27.93446l0.00003,0l0,-0.00002zm-1169.71687,-3409.44808c458.72711,-592.6024 941.14008,-1218.80863 1074.47654,-1392.70326l241.2479,-316.04087l-3.14707,-813.8104c-4.72061,-790.10218 -6.37696,-813.91348 -38.09613,-869.16393c-17.47453,-29.58373 -57.1442,-75.04167 -85.7163,-100.70839l-52.34077,-43.49943l-3497.97022,0c-3813.75402,0 -3536.06636,-7.9371 -3624.92972,112.5625c-66.66823,88.85429 -77.7658,163.99903 -77.7658,509.62363l0,322.01946l947.51704,1208.91302l949.09058,1208.91302l528.4596,-663.72705c290.4416,-365.41581 541.21353,-671.66416 558.68805,-683.51827c15.90099,-9.89561 58.71773,-19.79121 95.24033,-19.79121c55.57066,0 76.19226,13.81261 139.6306,86.89577c41.2432,49.37495 506.26446,640.01884 1034.80688,1313.6415c528.54241,673.62266 964.90876,1222.72563 969.71218,1220.76713c4.72061,-1.85543 384.02557,-487.77084 841.09633,-1080.37324l-0.00001,0l-0.00003,0.00001z"/>
    </g>
   </g>
   <g id="svg_7">
    <g id="svg_6" transform="translate(0, 511) scale(0.1, -0.1)">
     <path fill="#ffffff" id="svg_5" d="m1245.78678,4256.60576c-195.20126,-47.41644 -372.928,-227.18659 -465.02125,-468.18579l-50.76724,-132.35371l0,-3348.21903l0,-3348.21903l50.76724,-132.35371c95.24033,-248.93631 269.82,-420.76935 479.2659,-470.14429c117.43546,-27.62523 6932.4193,-27.62523 7049.85475,0c209.52871,49.37495 384.10839,221.20799 479.2659,470.14429l50.76724,132.35371l4.80342,3318.63529c3.14707,3267.30185 3.14707,3320.59379 -28.5721,3447.07199c-39.66967,163.99903 -125.38596,304.18676 -249.19839,408.91524c-187.25077,156.06193 104.76436,144.20782 -3785.18192,142.24932c-1918.71995,-2.16466 -3496.31387,-9.99869 -3535.98353,-19.89429l-0.00001,0l-0.00001,-0.00001zm7075.27979,-499.83111c60.29126,-39.47934 122.23889,-128.4367 144.43403,-207.39537c12.67111,-49.37495 17.47453,-645.89435 17.47453,-2153.11861l-1.57354,-2086.01405l-271.39353,345.72769c-149.15464,189.66575 -604.65186,776.28956 -1010.95538,1303.7459c-406.30353,527.45633 -755.46284,973.89242 -777.65799,991.62204c-52.34077,45.45793 -139.6306,45.45793 -195.20126,0c-23.76868,-17.8327 -423.77805,-517.56074 -887.14296,-1110.16314c-463.61335,-592.6024 -915.88069,-1169.43368 -1006.3176,-1281.99619l-161.90856,-203.47837l-536.41009,671.66416c-391.97607,495.81102 -547.50766,677.53967 -582.45672,685.47677c-119.009,33.60383 -96.81387,57.31204 -1036.38042,-1135.82986c-487.21639,-620.22763 -891.94639,-1125.93425 -898.32335,-1125.93425c-7.9505,0 -14.24464,1137.78836 -14.24464,2528.53311c0,2834.67838 -7.9505,2635.11702 115.86193,2747.78261l63.52116,57.31204l3497.97022,0c2980.44257,-0.20616 3504.18155,-4.22624 3540.70415,-27.93446l0.00003,0l0,-0.00002zm-1169.71687,-3409.44808c458.72711,-592.6024 941.14008,-1218.80863 1074.47654,-1392.70326l241.2479,-316.04087l-3.14707,-813.8104c-4.72061,-790.10218 -6.37696,-813.91348 -38.09613,-869.16393c-17.47453,-29.58373 -57.1442,-75.04167 -85.7163,-100.70839l-52.34077,-43.49943l-3497.97022,0c-3813.75402,0 -3536.06636,-7.9371 -3624.92972,112.5625c-66.66823,88.85429 -77.7658,163.99903 -77.7658,509.62363l0,322.01946l947.51704,1208.91302l949.09058,1208.91302l528.4596,-663.72705c290.4416,-365.41581 541.21353,-671.66416 558.68805,-683.51827c15.90099,-9.89561 58.71773,-19.79121 95.24033,-19.79121c55.57066,0 76.19226,13.81261 139.6306,86.89577c41.2432,49.37495 506.26446,640.01884 1034.80688,1313.6415c528.54241,673.62266 964.90876,1222.72563 969.71218,1220.76713c4.72061,-1.85543 384.02557,-487.77084 841.09633,-1080.37324l-0.00001,0l-0.00003,0.00001z"/>
    </g>
   </g>
   <g id="svg_10">
    <g id="svg_9" transform="translate(0, 511) scale(0.1, -0.1)">
     <path fill="#ffffff" id="svg_8" d="m1599.64195,3897.04849c-195.20126,-47.41644 -372.928,-227.18659 -465.02125,-468.18579l-50.76724,-132.35371l0,-3348.21903l0,-3348.21903l50.76724,-132.35371c95.24033,-248.93631 269.82,-420.76935 479.2659,-470.14429c117.43546,-27.62523 6932.4193,-27.62523 7049.85475,0c209.52871,49.37495 384.10839,221.20799 479.2659,470.14429l50.76724,132.35371l4.80342,3318.63529c3.14707,3267.30185 3.14707,3320.59379 -28.5721,3447.07199c-39.66967,163.99903 -125.38596,304.18676 -249.19839,408.91524c-187.25077,156.06193 104.76436,144.20782 -3785.18192,142.24932c-1918.71995,-2.16466 -3496.31387,-9.99869 -3535.98353,-19.89429l-0.00001,0l-0.00001,-0.00001zm7075.27979,-499.83111c60.29126,-39.47934 122.23889,-128.4367 144.43403,-207.39537c12.67111,-49.37495 17.47453,-645.89435 17.47453,-2153.11861l-1.57354,-2086.01405l-271.39353,345.72769c-149.15464,189.66575 -604.65186,776.28956 -1010.95538,1303.7459c-406.30353,527.45633 -755.46284,973.89242 -777.65799,991.62204c-52.34077,45.45793 -139.6306,45.45793 -195.20126,0c-23.76868,-17.8327 -423.77805,-517.56074 -887.14296,-1110.16314c-463.61335,-592.6024 -915.88069,-1169.43368 -1006.3176,-1281.99619l-161.90856,-203.47837l-536.41009,671.66416c-391.97607,495.81102 -547.50766,677.53967 -582.45672,685.47677c-119.009,33.60383 -96.81387,57.31204 -1036.38042,-1135.82986c-487.21639,-620.22763 -891.94639,-1125.93425 -898.32335,-1125.93425c-7.9505,0 -14.24464,1137.78836 -14.24464,2528.53311c0,2834.67838 -7.9505,2635.11702 115.86193,2747.78261l63.52116,57.31204l3497.97022,0c2980.44257,-0.20616 3504.18155,-4.22624 3540.70415,-27.93446l0.00003,0l0,-0.00002zm-1169.71687,-3409.44808c458.72711,-592.6024 941.14008,-1218.80863 1074.47654,-1392.70326l241.2479,-316.04087l-3.14707,-813.8104c-4.72061,-790.10218 -6.37696,-813.91348 -38.09613,-869.16393c-17.47453,-29.58373 -57.1442,-75.04167 -85.7163,-100.70839l-52.34077,-43.49943l-3497.97022,0c-3813.75402,0 -3536.06636,-7.9371 -3624.92972,112.5625c-66.66823,88.85429 -77.7658,163.99903 -77.7658,509.62363l0,322.01946l947.51704,1208.91302l949.09058,1208.91302l528.4596,-663.72705c290.4416,-365.41581 541.21353,-671.66416 558.68805,-683.51827c15.90099,-9.89561 58.71773,-19.79121 95.24033,-19.79121c55.57066,0 76.19226,13.81261 139.6306,86.89577c41.2432,49.37495 506.26446,640.01884 1034.80688,1313.6415c528.54241,673.62266 964.90876,1222.72563 969.71218,1220.76713c4.72061,-1.85543 384.02557,-487.77084 841.09633,-1080.37324l-0.00001,0l-0.00003,0.00001z"/>
    </g>
   </g>
   <g id="svg_13">
    <g id="svg_12" transform="translate(0, 511) scale(0.1, -0.1)">
     <path fill="#ffffff" id="svg_11" d="m1567.47321,4282.28832c-195.20126,-47.41644 -372.928,-227.18659 -465.02125,-468.18579l-50.76724,-132.35371l0,-3348.21903l0,-3348.21903l50.76724,-132.35371c95.24033,-248.93631 269.82,-420.76935 479.2659,-470.14429c117.43546,-27.62523 6932.4193,-27.62523 7049.85475,0c209.52871,49.37495 384.10839,221.20799 479.2659,470.14429l50.76724,132.35371l4.80342,3318.63529c3.14707,3267.30185 3.14707,3320.59379 -28.5721,3447.07199c-39.66967,163.99903 -125.38596,304.18676 -249.19839,408.91524c-187.25077,156.06193 104.76436,144.20782 -3785.18192,142.24932c-1918.71995,-2.16466 -3496.31387,-9.99869 -3535.98353,-19.89429l-0.00001,0l-0.00001,-0.00001zm7075.27979,-499.83111c60.29126,-39.47934 122.23889,-128.4367 144.43403,-207.39537c12.67111,-49.37495 17.47453,-645.89435 17.47453,-2153.11861l-1.57354,-2086.01405l-271.39353,345.72769c-149.15464,189.66575 -604.65186,776.28956 -1010.95538,1303.7459c-406.30353,527.45633 -755.46284,973.89242 -777.65799,991.62204c-52.34077,45.45793 -139.6306,45.45793 -195.20126,0c-23.76868,-17.8327 -423.77805,-517.56074 -887.14296,-1110.16314c-463.61335,-592.6024 -915.88069,-1169.43368 -1006.3176,-1281.99619l-161.90856,-203.47837l-536.41009,671.66416c-391.97607,495.81102 -547.50766,677.53967 -582.45672,685.47677c-119.009,33.60383 -96.81387,57.31204 -1036.38042,-1135.82986c-487.21639,-620.22763 -891.94639,-1125.93425 -898.32335,-1125.93425c-7.9505,0 -14.24464,1137.78836 -14.24464,2528.53311c0,2834.67838 -7.9505,2635.11702 115.86193,2747.78261l63.52116,57.31204l3497.97022,0c2980.44257,-0.20616 3504.18155,-4.22624 3540.70415,-27.93446l0.00003,0l0,-0.00002zm-1169.71687,-3409.44808c458.72711,-592.6024 941.14008,-1218.80863 1074.47654,-1392.70326l241.2479,-316.04087l-3.14707,-813.8104c-4.72061,-790.10218 -6.37696,-813.91348 -38.09613,-869.16393c-17.47453,-29.58373 -57.1442,-75.04167 -85.7163,-100.70839l-52.34077,-43.49943l-3497.97022,0c-3813.75402,0 -3536.06636,-7.9371 -3624.92972,112.5625c-66.66823,88.85429 -77.7658,163.99903 -77.7658,509.62363l0,322.01946l947.51704,1208.91302l949.09058,1208.91302l528.4596,-663.72705c290.4416,-365.41581 541.21353,-671.66416 558.68805,-683.51827c15.90099,-9.89561 58.71773,-19.79121 95.24033,-19.79121c55.57066,0 76.19226,13.81261 139.6306,86.89577c41.2432,49.37495 506.26446,640.01884 1034.80688,1313.6415c528.54241,673.62266 964.90876,1222.72563 969.71218,1220.76713c4.72061,-1.85543 384.02557,-487.77084 841.09633,-1080.37324l-0.00001,0l-0.00003,0.00001z"/>
    </g>
   </g>
  </g>
 </g>
</svg>