<svg width="24" height="24" xmlns="http://www.w3.org/2000/svg">

 <g>
  <title>background</title>
  <rect fill="none" id="canvas_background" height="602" width="802" y="-1" x="-1"/>
 </g>
 <g>
  <title>Layer 1</title>
  <path fill="#EEFF9F" id="svg_1" d="m6.05708,17.27656c0.46918,0.55258 0.76111,1.25114 0.76111,2.0331c0,1.73074 -1.3971,3.12784 -3.12784,3.12784s-3.12784,-1.3971 -3.12784,-3.12784s1.3971,-3.12784 3.12784,-3.12784c0.18767,0 0.37534,0 0.55258,0.05213l3.20082,-5.58841l-1.81415,-1.03219l4.26429,-1.16773l1.16773,4.26429l-1.81415,-1.03219l-3.1904,5.59883m14.31508,-1.09474c-1.3554,0 -2.50227,0.87579 -2.94017,2.08523l-6.44335,0l0,-2.08523l-3.12784,3.12784l3.12784,3.12784l0,-2.08523l6.44335,0c0.4379,1.20943 1.58477,2.08523 2.94017,2.08523c1.73074,0 3.12784,-1.3971 3.12784,-3.12784s-1.3971,-3.12784 -3.12784,-3.12784m-8.3409,-8.3409c0.18767,0 0.37534,0 0.55258,-0.05213l3.20082,5.58841l-1.81415,1.03219l4.26429,1.16773l1.16773,-4.26429l-1.81415,1.03219l-3.1904,-5.59883c0.46918,-0.55258 0.76111,-1.25114 0.76111,-2.0331c0,-1.73074 -1.3971,-3.12784 -3.12784,-3.12784s-3.12784,1.3971 -3.12784,3.12784s1.3971,3.12784 3.12784,3.12784z"/>
 </g>
</svg>