<svg width="1000" height="1000" xmlns="http://www.w3.org/2000/svg">
 <metadata>Svg Vector Icons : http://www.onlinewebfonts.com/icon</metadata>

 <g>
  <title>background</title>
  <rect fill="none" id="canvas_background" height="602" width="802" y="-1" x="-1"/>
 </g>
 <g>
  <title>Layer 1</title>
  <g id="svg_1">
   <path fill="#B6C7EA" id="svg_2" d="m740.9,486.5c-137.6,0 -249.1,111.5 -249.1,249.1c0,137.6 111.5,249.1 249.1,249.1c137.6,0 249.1,-111.5 249.1,-249.1c0,-137.5 -111.5,-249.1 -249.1,-249.1l0,0zm-148.5,335.9l-58.1,-96.5l37.8,0c13.4,-101 99.8,-179.2 204.4,-179.2l0.4,47.5c-83.2,0 -136.1,52.9 -149.1,132.4l37.3,0l-72.7,95.8zm316.9,-105.9c-1.1,113.8 -93.9,206 -207.9,206l1.1,-50.7c92.5,0 146,-60.4 154.6,-154.7l-39.3,0.4l64.8,-96.5l62.9,95.5l-40.9,-7.3l4.7,7.3z"/>
   <path fill="#B6C7EA" id="svg_3" d="m460.9,888.4c-24.8,-45.4 -39,-97.4 -39,-152.8c0,-2.3 0.3,-4.6 0.3,-7c-78.8,-7.1 -148.2,-46.5 -194.3,-105.5l209.5,-120.9l56,32.3c19.3,-23.8 41.9,-44.7 67.2,-62l-64.4,-37.2l0,-257.7c119.6,21.2 212.5,118.4 227.6,239.9c5.7,-0.3 11.4,-0.9 17.2,-0.9c33.1,0 65.1,5.1 95.1,14.4c-0.1,-1.1 -0.1,-2.3 -0.2,-3.4l49.2,-8.7l-14.7,-82.7l-48.6,8.6c-4.8,-16.7 -10.5,-33 -17.4,-48.8l43,-24.8l-42.1,-72.7l-42.8,24.8c-10.2,-14 -21.1,-27.3 -33,-39.8l32.1,-38.2l-64.4,-54l-31.5,37.6c-14.3,-9.7 -29.4,-18.1 -44.9,-25.8l17.1,-46.8l-78.9,-28.7l-16.9,46.5c-16.6,-4.1 -33.5,-7.5 -50.9,-9.5l0,-49.3l-83.9,0l0,49.1c-17.4,1.8 -34.3,5.1 -50.9,9.1l-17.1,-46.8l-78.9,28.7l16.9,46.5c-15.6,7.6 -30.7,15.9 -45.1,25.4l-31.9,-38l-64.3,54l31.7,37.8c-12,12.4 -23,25.7 -33.3,39.6l-43.2,-24.9l-42,72.7l42.8,24.6c-7,15.7 -13,31.8 -18,48.5l-48.8,-8.6l-14.6,82.7l48.8,8.6c-2.1,21.8 -1.4,27.5 -0.2,51.7l-49.2,8.7l14.6,82.7l48.6,-8.6c4.8,16.7 10.5,33 17.4,48.8l-43,24.8l42,72.7l42.8,-24.8c10.2,14 21.1,27.3 33,39.8l-32,38.2l64.3,54l31.5,-37.6c14.3,9.7 29.4,18.1 44.9,25.8l-17,46.8l78.9,28.7l16.9,-46.5c16.6,4.2 33.5,7.5 50.9,9.5l0,49.6l57.1,-0.2zm-13.4,-470.1c33.3,4.1 35.3,34.7 35.3,35.3c-3.2,29.7 -31.5,35.3 -35.3,35.3c-19.2,0.9 -35.2,-22.6 -35.2,-35.3c0,-0.7 3.2,-33.1 35.2,-35.3zm-261.8,128.5c-10.8,-29.7 -16.9,-61.5 -16.9,-94.9c0,-140.8 104.5,-256.9 240.1,-275.8l0,241.8l-223.2,128.9z"/>
  </g>
 </g>
</svg>