<svg width="26" height="26" xmlns="http://www.w3.org/2000/svg">

 <g>
  <title>background</title>
  <rect fill="none" id="canvas_background" height="602" width="802" y="-1" x="-1"/>
 </g>
 <g>
  <title>Layer 1</title>
  <path fill="#EEFF9F" id="svg_1" d="m13,0.0625c-0.511,0 -1.1235,0.1715 -1.3125,0.4375c-0.128,0.181 -0.375,7.5625 -0.375,7.5625l-1.75,0c-0.188,0 -0.38075,0.085 -0.46875,0.25c-0.089,0.165 -0.07475,0.37625 0.03125,0.53125c1.357,2.007 3.4735,3.96025 3.5625,4.03125c0.091,0.072 0.2005,0.09375 0.3125,0.09375c0.111,0 0.2195,-0.02075 0.3125,-0.09375c0.09,-0.071 2.2045,-2.02325 3.5625,-4.03125c0.104,-0.155 0.11925,-0.36625 0.03125,-0.53125c-0.089,-0.165 -0.2505,-0.25 -0.4375,-0.25l-1.78125,0c0,0 -0.3085,-7.3825 -0.4375,-7.5625c-0.188,-0.266 -0.74,-0.4375 -1.25,-0.4375zm2.96875,2.3125c0.042,0.565 0.072,1.266 0.125,2.125c4,1.308 6.90625,5.068 6.90625,9.5c0,5.514 -4.486,10 -10,10c-5.514,0 -10,-4.486 -10,-10c0,-4.43 2.90825,-8.19 6.90625,-9.5c0.042,-0.855 0.05875,-1.53075 0.09375,-2.09375c-5.172,1.335 -9,6.01175 -9,11.59375c0,6.617 5.383,12 12,12c6.617,0 12,-5.383 12,-12c0,-5.594 -3.84225,-10.302 -9.03125,-11.625z"/>
 </g>
</svg>