<svg width="26" height="26" xmlns="http://www.w3.org/2000/svg">
 <g>
  <title>background</title>
  <rect x="-1" y="-1" width="28" height="28" id="canvas_background" fill="none"/>
 </g>

 <g>
  <title>Layer 1</title>
  <path d="m17,0c-3.9,0 -7.3,2.5 -8.5,6l0.5,0c0.6,0 1.09375,0.09375 1.59375,0.09375c1.1,-2.4 3.60625,-4.09375 6.40625,-4.09375c3.9,0 7,3.1 7,7c0,2.8 -1.69375,5.30625 -4.09375,6.40625c0.1,0.5 0.09375,1.09375 0.09375,1.59375l0,0.5c3.5,-1.2 6,-4.6 6,-8.5c0,-5 -4,-9 -9,-9zm3.5,5.5l-5.40625,0.8125l1.59375,1.5625l-7.40625,7.40625l1.4375,1.4375l7.40625,-7.40625l1.5625,1.59375l0.8125,-5.40625zm-11.5,2.5c-5,0 -9,4 -9,9c0,5 4,9 9,9c5,0 9,-4 9,-9c0,-1.6 -0.39375,-3.0125 -1.09375,-4.3125l-1.5,1.5c0.4,0.8 0.59375,1.8125 0.59375,2.8125c0,3.9 -3.1,7 -7,7c-3.9,0 -7,-3.1 -7,-7c0,-3.9 3.1,-7 7,-7c1,0 2.0125,0.19375 2.8125,0.59375l1.5,-1.5c-1.3,-0.7 -2.7125,-1.09375 -4.3125,-1.09375z" id="svg_1" fill="#FFAC8D"/>
 </g>
</svg>