<svg width="1800" height="1800" xmlns="http://www.w3.org/2000/svg">
 <metadata id="metadata12">image/svg+xml</metadata>

 <g>
  <title>background</title>
  <rect x="-1" y="-1" width="1802" height="1802" id="canvas_background" fill="none"/>
 </g>
 <g>
  <title>Layer 1</title>
  <g id="g4" transform="matrix(1, 0, 0, -1, 7.59322, 1278.24)">
   <path id="path6" d="m1787.99999,47.99939l0,-320q0,-40 -28,-68q-28,-28 -68,-28l-320,0q-40,0 -68,28q-28,28 -28,68l0,320q0,40 28,68q28,28 68,28l96,0l0,192l-512,0l0,-192l96,0q40,0 68,-28q28,-28 28,-68l0,-320q0,-40 -28,-68q-28,-28 -68,-28l-320,0q-40,0 -68,28q-28,28 -28,68l0,320q0,40 28,68q28,28 68,28l96,0l0,192l-512,0l0,-192l96,0q40,0 68,-28q28,-28 28,-68l0,-320q0,-40 -28,-68q-28,-28 -68,-28l-320,0q-40,0 -68,28q-28,28 -28,68l0,320q0,40 28,68q28,28 68,28l96,0l0,192q0,52 38,90q38,38 90,38l512,0l0,192l-96,0q-40,0 -68,28q-28,28 -28,68l0,320q0,40 28,68q28,28 68,28l320,0q40,0 68,-28q28,-28 28,-68l0,-320q0,-40 -28,-68q-28,-28 -68,-28l-96,0l0,-192l512,0q52,0 90,-38q38,-38 38,-90l0,-192l96,0q40,0 68,-28q28,-28 28,-68z" fill="#9ACEE6"/>
  </g>
 </g>
</svg>