<svg width="800" height="800" xmlns="http://www.w3.org/2000/svg" xmlns:xlink="http://www.w3.org/1999/xlink">
 <g>
  <title>background</title>
  <rect fill="none" id="canvas_background" height="802" width="802" y="-1" x="-1"/>
 </g>
 <g>
  <title>Layer 1</title>
  <g id="Layer_1_1_"/>
  <g id="Layer_3"/>
  <g transform="rotate(-39.5442, 568.415, 471.087)" id="svg_7">
   <defs fill="#529D94" stroke="#000000" transform="translate(9.80531, -3.52472) translate(38.1676, -13.7202) translate(79.3463, -28.5228) translate(1.24453e-05, 2.64141e-05) translate(-14.4086, -35.0164) translate(5, 124) translate(30.175, 34.617) scale(16.579, 15.2262) translate(-30.175, -34.617) translate(2.12166, 39.9404) scale(1, 0.597351) translate(-2.12166, -39.9404) translate(2.12166, 66.8625) scale(1, 1.9124) translate(-2.12166, -66.8625) translate(45.9627, 34.9626) scale(1) translate(-45.9627, -34.9626) translate(45.9627, 34.9626) scale(0.84938, 0.99823) translate(-45.9627, -34.9626) translate(9.4031, 33.0115) scale(1, 0.513761) translate(-9.4031, -33.0115) translate(15.0377, 61.0572) scale(1, 0.544743) translate(-15.0377, -61.0572) translate(17.7481, 79.7379) scale(1, 1.2147) translate(-17.7481, -79.7379)">
    <rect fill="#529D94" stroke="#000000" height="29.524" width="43.842" y="34.617" x="30.175" id="SVGID_3_"/>
   </defs>
   <clipPath fill="#529D94" stroke="#000000" transform="translate(9.80531, -3.52472) translate(38.1676, -13.7202) translate(79.3463, -28.5228) translate(1.24453e-05, 2.64141e-05) translate(-14.4086, -35.0164) translate(5, 124) translate(30.175, 34.617) scale(16.579, 15.2262) translate(-30.175, -34.617) translate(2.12166, 39.9404) scale(1, 0.597351) translate(-2.12166, -39.9404) translate(2.12166, 66.8625) scale(1, 1.9124) translate(-2.12166, -66.8625) translate(45.9627, 34.9626) scale(1) translate(-45.9627, -34.9626) translate(45.9627, 34.9626) scale(0.84938, 0.99823) translate(-45.9627, -34.9626) translate(9.4031, 33.0115) scale(1, 0.513761) translate(-9.4031, -33.0115) translate(15.0377, 61.0572) scale(1, 0.544743) translate(-15.0377, -61.0572) translate(17.7481, 79.7379) scale(1, 1.2147) translate(-17.7481, -79.7379)" id="SVGID_4_">
    <use fill="#529D94" stroke="#000000" x="5" y="124" id="svg_8" xlink:href="#SVGID_3_"/>
   </clipPath>
   <path fill="#529D94" stroke="#000000" id="svg_9" d="m740.22085,537.82569l99.03794,0c4.12599,0 7.39299,0.57256 7.39299,1.26318l0,6.07389c0,0.69652 -3.267,1.22776 -7.39299,1.22776l-99.03794,0c-4.11191,0 -7.39299,-0.53124 -7.39299,-1.22776l0,-6.07389c0,-0.69652 3.28108,-1.26318 7.39299,-1.26318m-101.74167,-106.46132c57.28514,0 103.82579,19.84492 103.82579,44.27034c0,24.43133 -46.54065,44.22312 -103.82579,44.22312c-57.3133,0 -103.85395,-19.7977 -103.85395,-44.22312c0,-24.41952 46.54065,-44.27034 103.85395,-44.27034m0,-6.81173c-66.17081,0 -119.90731,22.88482 -119.90731,51.08207c0,28.20316 53.72242,51.08207 119.90731,51.08207c66.15673,0 119.89323,-22.87891 119.89323,-51.08207c0,-28.19726 -53.72242,-51.08207 -119.89323,-51.08207m0,-4.89335c72.49358,0 131.35589,25.08063 131.35589,55.97542c0,30.9007 -58.86231,55.97542 -131.35589,55.97542c-72.50766,0 -131.35589,-25.07472 -131.35589,-55.97542c0,-30.8948 58.84823,-55.97542 131.35589,-55.97542m-330.89629,-14.29047l139.57971,0c5.80174,0 10.53326,1.93609 10.53326,4.36801l0,21.24386c0,2.42601 -4.73152,4.3621 -10.53326,4.3621l-139.57971,0c-5.80174,0 -10.4206,-1.93609 -10.4206,-4.3621l0,-21.24386c0,-2.43192 4.61886,-4.36801 10.4206,-4.36801m392.7158,-21.41504c-5.80174,0 -10.53326,1.93609 -10.53326,4.36801l0,4.10829l-410.34633,0c-10.92755,0 -19.68648,3.67149 -19.68648,8.25199l0,149.23238c0,4.59231 8.75894,8.30512 19.68648,8.30512l577.99125,0c10.92755,0 19.68648,-3.71281 19.68648,-8.30512l0,-149.22647c0,-4.5805 -8.75894,-8.25199 -19.68648,-8.25199l-31.92365,0l0,-4.10829c0,-2.43192 -4.71743,-4.36801 -10.51917,-4.36801l-114.66884,0l0,-0.0059z" clip-path="url(#SVGID_4_)"/>
  </g>
  <rect rx="99" id="svg_31" height="732" width="747" y="35" x="30.5" stroke-width="65" stroke="#B6C7EA" fill="none"/>
  <g id="svg_30">
   <g transform="matrix(0.814604, 0, 0, 0.831079, -332, -277.391)" id="svg_29">
    <title fill="#84D3DB">VCamera</title>
    <g id="svg_20">
     <g id="svg_21" transform="matrix(1.00704, 0, 0, 1.01021, -1210.26, -912.249)">
      <title fill="#84D3DB">Cinema</title>
      <!-- Created with Method Draw - http://github.com/duopixel/Method-Draw/ -->
      <g id="svg_22">
       <g transform="matrix(0.992411, 0, 0, 0.992411, -5.32799, -1050.31)" id="svg_23">
        <title fill="#84D3DB">Camera</title>
        <g id="svg_24">
         <g transform="matrix(0.0615688, 0, 0, -0.058834, -1.81829, -368.333)" fill="#000000" id="svg_25">
          <path d="m35385.52078,-48487.37099c-577,-56 -1110,-268 -1547,-617c-117,-94 -316,-288 -417,-408c-289,-344 -516,-810 -604,-1241c-12,-60 -27,-114 -33,-120c-6,-6 -78,-23 -161,-38c-82,-15 -157,-29 -166,-32c-12,-3 -35,24 -84,96c-275,414 -659,725 -1122,909c-465,185 -1034,212 -1518,72c-300,-86 -574,-226 -825,-420c-117,-90 -330,-306 -419,-424c-204,-273 -352,-583 -424,-892c-114,-484 -78,-987 103,-1439c142,-357 383,-690 685,-946c235,-199 590,-388 868,-462l87,-23l0,-132l0,-133l-239,0c-140,0 -241,4 -243,9c-2,6 -131,57 -287,115l-284,106l-199,0c-109,0 -198,-2 -198,-5c0,-4 617,-1291 626,-1306c2,-3 56,8 120,26l116,31l66,107l65,107l229,0l228,0l0,-1490l0,-1490l4150,0l4150,0l0,2475l0,2475l-322,0l-322,0l45,37c410,344 741,860 893,1394c125,438 143,919 51,1375c-106,523 -371,1023 -750,1413c-401,413 -875,680 -1436,810c-241,56 -645,84 -882,61zm-2199,-4387c126,-206 274,-386 471,-574l134,-129l-742,0c-409,0 -741,3 -739,8c2,4 33,52 69,107c110,164 225,400 269,551l12,41l147,28c131,25 314,61 318,64c0,1 28,-43 61,-96zm4196,-4678c93,-45 146,-130 146,-235c0,-76 -21,-129 -71,-178c-54,-55 -104,-76 -184,-76c-79,-1 -130,20 -185,76c-129,129 -77,357 97,423c50,19 147,14 197,-10z" id="svg_27" fill="#84D3DB"/>
          <path d="m40058.52078,-53717.37099l-724,-440l-573,0l-573,0l2,-1102l3,-1103l580,-5l580,-5l715,-434c393,-238 718,-435 723,-438c4,-2 7,889 7,1981c0,1092 -3,1986 -7,1986c-5,-1 -334,-199 -733,-440z" id="svg_26" fill="#84D3DB"/>
         </g>
        </g>
       </g>
      </g>
     </g>
    </g>
   </g>
  </g>
 </g>
</svg>