<svg width="1000" height="1000" xmlns="http://www.w3.org/2000/svg">
 <metadata>Svg Vector Icons : http://www.onlinewebfonts.com/icon</metadata>

 <g>
  <title>background</title>
  <rect fill="none" id="canvas_background" height="602" width="802" y="-1" x="-1"/>
 </g>
 <g>
  <title>Layer 1</title>
  <g id="svg_1">
   <g id="svg_2" transform="translate(0.000000,511.000000) scale(0.100000,-0.100000)">
    <path fill="#FFAFCC" id="svg_3" d="m4586.8,4696.6l-6,-313.4l-183.6,-26c-453.1,-59.9 -920.1,-209.6 -1359.2,-433.1c-1225.5,-628.6 -2105.7,-1864.1 -2285.3,-3211.3l-26,-183.6l-313.4,-6l-313.4,-6l0,-407.2l0,-409.2l317.3,0l315.4,0l12,-125.7c35.9,-383.2 203.6,-942.1 403.2,-1349.3c511,-1029.9 1411.1,-1820.3 2486.9,-2179.5c263.5,-87.8 606.8,-167.7 822.3,-189.6l133.7,-14l0,-315.4l0,-317.3l409.3,0l409.2,0l0,315.4l0,315.4l189.6,26c1341.2,179.5 2554.8,1035.7 3199.4,2257.3c213.6,405.2 387.2,940.1 445.1,1383.2l26,193.6l315.4,0l315.3,0l0,409.1l0,409.2l-317.4,0l-315.4,0l-14,133.7c-21.9,215.6 -101.8,558.9 -189.6,822.3c-359.3,1075.8 -1149.6,1976 -2179.5,2486.9c-407.2,199.6 -966,367.2 -1349.3,403.2l-125.7,12l0,315.4l0,317.3l-409.1,0l-407.2,0l-6,-313.4zm4,-1548.8l0,-405.2l-203.6,-51.9c-503,-125.7 -906.1,-351.3 -1261.4,-706.6c-355.3,-355.3 -580.8,-758.4 -706.6,-1259.4l-51.9,-205.6l-405.2,0c-471,0 -429.1,-33.9 -363.3,285.4c271.4,1345.3 1345.2,2425 2692.5,2706.5c103.8,22 213.6,39.9 245.5,39.9l53.9,2l0,-405.1l0.1,0zm1269.4,325.3c473,-121.8 920.1,-345.3 1317.3,-660.7c67.9,-53.9 217.6,-197.6 335.3,-317.3c347.3,-365.2 614.7,-804.4 774.4,-1281.4c67.9,-207.6 155.7,-578.8 155.7,-664.6c0,-25.9 -63.9,-29.9 -409.2,-29.9l-409.2,0l-12,55.9c-87.8,383.2 -171.7,612.8 -323.3,872.2c-175.6,299.4 -475,626.7 -766.4,834.3c-267.4,191.6 -668.6,365.3 -998,433.1l-115.8,22l0,411.2l0,409.1l115.8,-14c62,-8 213.7,-39.9 335.4,-69.9zm-1269.4,-1856.2l0,-279.4l409.2,0l409.2,0l0,279.4c0,153.7 8,279.4 16,279.4c47.9,0 251.5,-73.9 373.2,-133.7c385.2,-193.6 656.7,-463 844.3,-834.3c53.9,-109.8 143.7,-351.3 143.7,-393.2c0,-8 -125.7,-16 -279.4,-16l-279.4,0l0,-409.1l0,-409.2l279.4,0c153.7,0 279.4,-8 279.4,-16c0,-39.9 -99.8,-303.4 -155.7,-413.2c-163.7,-323.3 -479,-636.7 -802.4,-798.4c-103.8,-51.9 -365.3,-149.7 -403.2,-149.7c-8,0 -16,125.7 -16,279.4l0,279.4l-409.1,0l-409.2,0l0,-279.4c0,-153.7 -8,-279.4 -16,-279.4c-41.9,0 -283.4,89.8 -393.2,143.7c-371.2,187.6 -640.7,459.1 -834.3,844.3c-59.9,121.7 -133.7,325.3 -133.7,373.2c0,8 125.7,16 279.4,16l279.4,0l0,409.3l0,409.2l-281.4,0l-281.4,0l14,65.9c63.9,303.4 333.3,722.5 604.8,938.1c201.6,161.7 489,315.4 672.6,359.3c91.8,21.8 89.8,27.8 89.8,-265.6zm-2195.5,-2029.8c67.9,-331.3 241.5,-732.5 433.1,-1000c207.6,-291.4 534.9,-590.8 834.3,-766.4c259.5,-151.7 489,-235.5 874.2,-323.3l53.9,-12l0,-409.2c0,-361.2 -4,-409.2 -31.9,-409.2c-83.8,0 -461.1,89.8 -668.6,159.7c-716.5,237.5 -1357.2,732.5 -1788.4,1377.2c-259.5,387.2 -485,968 -534.9,1383.2l-14,113.8l409.2,0l411.2,0l21.9,-113.8zm6047.7,81.8c0,-69.9 -85.8,-443.1 -141.7,-624.7c-81.8,-259.5 -307.4,-708.6 -471,-940.1c-173.7,-243.5 -580.8,-650.7 -824.3,-824.3c-231.5,-163.7 -680.6,-389.2 -940.1,-471c-181.6,-55.9 -554.9,-141.7 -624.7,-141.7c-27.9,0 -31.9,47.9 -31.9,409.2l0,409.2l55.9,12c606.8,133.7 1049.9,371.3 1435.1,772.4c377.2,393.2 576.8,780.4 712.5,1377.2l12,53.9l409.2,0c361.1,-0.2 409,-4.2 409,-32.1z"/>
   </g>
  </g>
 </g>
</svg>