# File exported by Houdini 18.0.499 (www.sidefx.com)
# 8 points
# 24 vertices
# 6 primitives
# Bounds: [-0.5, -0.5, -0.5] to [0.5, 0.5, 0.5]
g 
v 0.5 -0.5 0.5
v -0.5 -0.5 0.5
v 0.5 0.5 0.5
v -0.5 0.5 0.5
v -0.5 -0.5 -0.5
v 0.5 -0.5 -0.5
v -0.5 0.5 -0.5
v 0.5 0.5 -0.5
vt 0.5 -0.5 0.5
vt 0.5 0.5 0.5
vt -0.5 0.5 0.5
vt -0.5 -0.5 0.5
vt 0.49999997 -0.5 0.50000006
vt 0.49999997 0.5 0.50000006
vt -0.50000006 0.5 0.49999997
vt -0.50000006 -0.5 0.49999997
vt -0.49999997 0.49999997 0.5
vt -0.49999997 -0.5 0.49999997
vt 0.49999997 -0.5 0.49999997
vt 0.49999997 0.49999997 0.5
vt 0.49999997 -0.49999997 0.5
vt 0.49999997 0.5 0.49999997
vt -0.49999997 0.5 0.49999997
vt -0.49999997 -0.49999997 0.5
vt -0.5 0.49999997 0.49999997
vt -0.5 -0.49999997 0.49999997
vt 0.5 -0.49999997 0.49999997
vt 0.5 0.49999997 0.49999997
vn 0 0 1
vn -0 -0 1
vn -0 -0 1
vn -0 -0 1
vn 0 -0 -1
vn -0 -0 -1
vn -0 0 -1
vn -0 -0 -1
vn -0 1 -0
vn 0 1 0
vn -0 1 -0
vn -0 1 -0
vn -0 -1 -0
vn 0 -1 -0
vn -0 -1 -0
vn -0 -1 0
vn 1 -0 -0
vn 1 0 0
vn 1 -0 -0
vn 1 -0 -0
vn -1 -0 -0
vn -1 -0 0
vn -1 -0 -0
vn -1 0 -0
g 
f 1/1/1 3/2/2 4/3/3 2/4/4
f 5/5/5 7/6/6 8/7/7 6/8/8
f 7/9/9 4/10/10 3/11/11 8/12/12
f 6/13/13 1/14/14 2/15/15 5/16/16
f 6/13/17 8/12/18 3/17/19 1/18/20
f 2/19/21 4/20/22 7/9/23 5/16/24
